<svg width="755" height="587" viewBox="0 0 755 587" fill="none" xmlns="http://www.w3.org/2000/svg">
<path fill-rule="evenodd" clip-rule="evenodd" d="M133.511 326.685C131.682 323.587 129.115 321.79 125.95 321.542C116.835 320.827 108.733 323.29 102.983 330.798C101.187 333.141 100.367 336.288 99.3278 339.148C97.861 343.185 95.8644 344.43 91.6457 343.562C90.643 343.355 89.6505 343.103 88.6507 342.881C81.1077 341.206 74.44 343.094 68.5789 347.983C65.259 350.751 63.1394 354.166 63.9211 358.719C64.6823 363.156 67.1546 364.716 71.4597 363.566C73.2909 363.075 75.046 362.233 76.8963 361.891C80.0172 361.317 81.9508 362.678 82.7281 365.764C83.0502 367.04 82.9623 368.462 83.4761 369.635C84.1597 371.194 84.9634 372.91 86.2105 373.977C91.3412 378.355 101.102 376.152 104.463 370.326C109.509 361.58 114.588 352.831 120.129 344.399C124.132 338.306 128.906 332.722 133.511 326.685ZM111.609 497.506C108.747 495.547 106.565 494.79 103.653 495.352C96.8568 496.663 91.2783 499.605 88.8659 506.762C87.8412 509.799 86.4974 510.507 83.5025 509.363C80.6905 508.288 77.959 506.858 75.4281 505.217C71.9984 502.992 68.6389 501.576 64.3514 502.42C56.2946 504.005 51.669 509.244 48.7765 516.386C46.7696 521.341 46.3012 521.748 41.0475 520.895C35.1689 519.943 30.2549 521.629 27.0842 526.827C25.5092 529.41 24.3733 532.325 23.4423 535.218C22.9826 536.643 22.8846 538.681 23.5726 539.901C27.2862 546.473 34.7107 548.732 40.6113 544.237C45.9557 540.162 47.8411 540.783 49.6284 547.181C49.7075 547.461 49.8026 547.74 49.8773 548.022C50.9546 552.135 53.6773 554.639 57.7394 555.377C62.9506 556.324 68.1266 556.32 72.7318 553.205C72.5341 551.275 72.3438 549.529 72.1799 547.784C71.6763 542.428 73.105 537.618 76.3708 533.382C80.143 528.491 85.3571 526.031 91.2475 524.877C94.0785 524.323 96.9608 524.042 99.4273 523.694C100.392 518.664 100.455 513.585 102.421 509.405C104.461 505.063 108.343 501.593 111.609 497.506ZM724.851 524.141C724.364 522.18 724.01 519.37 722.972 516.844C720.284 510.302 715.332 506.643 708.171 506.298C701.407 505.972 695.108 507.393 689.494 511.394C688.192 512.323 686.804 513.201 685.337 513.823C681.6 515.41 678.737 514.225 677.182 510.485C676.453 508.731 676.083 506.829 675.341 505.084C673.536 500.836 671.424 496.51 666.674 495.153C656.764 492.32 647.236 492.729 639.303 500.462C637.005 502.7 634.724 505.055 632.922 507.689C628.964 513.48 625.172 519.397 621.585 525.423C618.507 530.598 616.602 531.731 610.927 530.578C605.797 529.538 600.708 530.007 595.731 531.302C591.974 532.281 588.806 534.42 586.476 537.624C583.97 541.072 584.966 544.896 588.849 546.62C589.772 547.03 590.801 547.301 591.805 547.407C596.446 547.897 601.105 548.766 605.735 548.649C614.929 548.412 624.151 547.981 633.283 546.937C640.504 546.112 647.672 544.515 654.736 542.745C658.295 541.856 661.47 541.757 664.995 542.77C670.459 544.338 676.024 545.69 681.637 546.566C688.257 547.599 691.454 545.577 694.12 539.68C696.187 535.111 698.536 534.02 703.608 534.885C706.614 535.396 709.686 535.858 712.716 535.777C716.654 535.675 719.542 533.624 721.252 529.897C722.08 528.093 723.355 526.496 724.851 524.141ZM587.595 528.14C586.915 523.828 584.551 521.654 581.087 520.571C579.422 520.048 577.704 519.554 575.979 519.391C568.254 518.658 560.815 519.802 553.784 523.207C547.69 526.157 541.951 529.535 537.631 535.014C535.324 537.938 533.713 537.856 530.397 535.94C528.777 535.002 527.039 534.078 525.237 533.69C521.673 532.924 518.031 532.5 514.411 531.996C501.699 530.228 491.476 534.795 483.297 544.423C482.366 545.519 481.564 546.799 481.012 548.125C480.326 549.766 480.592 551.31 482.453 552.16C482.851 552.34 483.42 552.417 483.615 552.728C484.265 553.767 485.271 554.906 485.233 555.978C485.178 557.613 483.732 558.347 482.079 558.366C481.64 558.37 481.2 558.397 480.764 558.369C476.7 558.107 473.349 559.775 470.375 562.326C467.374 564.9 464.891 567.958 465.83 572.181C466.755 576.332 470.441 577.698 474.045 578.55C482.861 580.634 490.852 578.986 497.701 572.74C501.285 569.471 503.4 569.655 505.667 573.71C507.701 577.345 510.816 579.335 514.629 580.176C517.747 580.863 520.98 581.105 524.177 581.337C532.59 581.948 538.711 577.866 543.59 571.467C545.643 568.776 546.401 568.431 549.466 569.506C550.156 569.749 550.795 570.149 551.495 570.339C561.322 572.981 570.624 572.492 578.802 565.605C583.475 561.673 584.154 561.297 590.172 559.813C593.429 559.01 594.36 557.708 594.035 554.158C592.965 553.967 591.836 553.704 590.694 553.573C585.96 553.033 582.175 550.641 578.795 547.476C576.548 545.371 576.522 544.598 577.511 541.68C579.408 536.09 582.594 531.49 587.595 528.14ZM106.458 519.698C106.458 520.606 106.442 520.9 106.461 521.193C106.842 527.327 105.326 530.734 98.1567 530.391C94.1063 530.197 90.0223 531.129 86.3028 533.112C80.3714 536.274 77.334 542.337 78.467 548.909C78.9486 551.699 79.7215 552.279 82.5422 552.267C83.9768 552.26 85.5225 552.179 86.8253 552.659C89.9403 553.802 92.8738 553.353 95.7912 552.189C97.4175 551.54 98.9472 550.648 100.575 550.001C104.15 548.578 106.638 549.252 109.151 552.22C109.529 552.666 109.904 553.127 110.198 553.631C114.232 560.506 121.794 562.705 127.799 566.961C128.241 567.275 128.922 567.25 129.491 567.385C139.886 569.865 150.093 569.371 160.034 565.31C166.42 562.702 171.325 558.617 173.186 551.593C173.558 550.186 174.042 548.769 174.724 547.491C176.141 544.838 178.214 543.743 180.915 544.835C186.682 547.171 192.398 546.174 198.198 545.299C202.125 544.706 205.385 542.913 208.212 540.241C212.649 536.05 214.17 528.396 211.658 523.197C209.263 518.236 201.916 514.83 195.914 516.078C194.231 516.429 192.684 517.392 191.043 517.982C188.074 519.05 185.769 517.826 185.12 514.738C184.823 513.318 184.923 511.818 184.784 510.361C184.185 504.055 181.152 499.817 174.916 497.796C166.897 495.197 160.36 496.838 154.891 503.4C150.905 508.184 148.632 508.014 144.819 503.258C144.451 502.801 144.104 502.327 143.722 501.885C140.868 498.606 137.391 497.014 132.93 497.055C124.82 497.131 118.331 500.447 112.566 505.923C108.373 509.909 105.891 514.405 106.458 519.698ZM661.745 486.768C661.336 482.739 661.187 478.638 660.463 474.643C658.453 463.55 656.299 452.482 654.028 441.441C649.341 418.647 639.252 397.98 628.74 377.492C628.461 376.946 627.948 376.521 627.382 375.842C624.406 381.047 621.099 385.457 619.687 391.018C618.663 395.05 615.794 398.187 612.474 400.748C611.085 401.82 609.67 402.863 608.244 403.888C605.769 405.667 604.665 408.038 604.972 411.098C605.164 412.993 605.283 414.897 605.366 416.799C605.668 423.756 602.945 429.051 596.692 432.302C593.32 434.053 589.888 435.685 586.473 437.348C583.273 438.907 580.465 440.73 578.93 444.277C578.227 445.901 576.614 447.281 575.124 448.373C573.01 449.922 570.707 451.262 568.346 452.399C564.817 454.101 563.211 456.768 562.82 460.66C561.784 470.998 556.662 478.359 546.856 482.427C542.835 484.096 539.117 486.517 535.308 488.68C529.961 491.718 527.611 496.274 529.248 502.332C531.228 509.671 533.5 516.931 535.7 524.21C535.967 525.092 536.573 525.87 537.027 526.706C546.032 520.182 555.299 514.973 566.244 513.813C577.325 512.639 587.771 513.423 593.866 525.023C600.319 524.142 606.685 523.245 613.118 524.515C613.839 524.657 614.97 523.85 615.57 523.178C616.33 522.326 616.725 521.154 617.301 520.133C622.282 511.29 628.092 503.057 635.221 495.801C638.911 492.045 643.22 489.396 648.465 488.559C652.628 487.897 656.822 487.425 661.745 486.768ZM167.054 302.594C161.629 307.584 156.834 311.671 152.406 316.127C129.938 338.74 112.572 364.722 100.452 394.331C91.6266 415.89 85.3527 438.128 81.5688 461.038C79.436 473.953 79.4872 487.041 81.9406 500.008C82.0182 500.422 82.2304 500.811 82.611 501.827C83.6591 500.707 84.4964 499.847 85.2957 498.951C90.924 492.65 97.7542 488.835 106.37 488.822C110.4 488.815 114.292 489.493 117.363 492.389C118.69 493.638 119.891 493.231 121.374 492.882C124.915 492.047 128.484 491.204 132.091 490.811C138.34 490.131 143.542 492.515 147.802 497.059C148.399 497.696 148.926 498.399 149.715 499.349C154.432 495.04 158.882 490.839 165.476 490.417C171.677 490.02 177.365 491.395 182.692 494.514C188.609 497.98 190.071 503.992 191.369 510.302C193.124 510.055 194.685 509.633 196.238 509.661C198.986 509.712 201.882 509.542 204.443 510.346C211.485 512.559 217.232 516.586 218.623 524.437C220.094 532.761 218.151 540.163 211.4 545.842C207.96 548.734 204.134 550.68 199.663 551.408C193.165 552.464 186.69 553.795 180.099 551.286C179.613 552.398 179.177 553.155 178.942 553.97C176.027 564.054 168.486 569.028 159.201 572.238C149.82 575.483 140.322 575.726 130.642 574.035C126.824 573.368 123.263 572.281 120.199 569.81C119.177 568.984 118.129 568.113 116.954 567.566C111.776 565.153 107.516 561.739 104.584 556.756C104.381 556.409 103.924 556.211 103.227 555.659C94.8939 560.931 85.8988 561.392 76.4557 557.92C71.6398 564.421 64.9589 562.693 58.4596 561.913C51.2606 561.05 46.3407 557.231 43.7307 550.193C39.2544 552.634 34.7649 553.368 29.9914 552.421C20.7415 550.586 15.0927 541.751 17.5929 532.664C18.2472 530.283 19.2572 527.964 20.3741 525.755C24.4274 517.742 30.9985 513.951 39.9614 514.343C40.686 514.374 41.4135 514.347 42.5187 514.347C48.5408 501.375 57.9443 493.721 73.8926 496.554C73.8926 493.854 74.0521 491.28 73.8677 488.731C72.4873 469.733 75.9287 451.363 80.6715 433.103C84.7731 417.314 89.8408 401.887 96.4587 386.979C97.0266 385.697 97.5287 384.387 98.145 382.888C85.3615 383.243 79.7507 379.783 76.2654 368.914C74.7577 369.275 73.2353 369.661 71.7027 370.003C65.6937 371.339 60.5646 368.515 58.4698 362.735C55.955 355.789 58.3688 348.087 64.6208 343.111C71.8535 337.356 79.8693 334.56 89.166 336.558C90.3019 336.801 91.4656 336.92 93.0568 337.165C95.7121 327.134 102.121 320.252 111.917 317.052C121.275 313.993 130.609 313.329 139.105 321.013C139.941 319.948 140.584 318.964 141.382 318.129C153.028 305.932 165.034 294.057 178.69 284.158C190.289 275.749 202.494 268.163 215.515 262.05C217.062 261.323 218.81 260.849 220.509 260.67C222.251 260.486 223.894 261.446 224.024 263.25C224.115 264.504 223.468 266.127 222.59 267.046C221.648 268.033 220.1 268.545 218.729 268.987C211.845 271.215 205.59 274.629 199.616 278.676C192.595 283.43 185.507 288.089 178.366 292.66C174.828 294.924 173.24 298.093 173.057 302.165C172.707 309.928 172.176 317.687 172.01 325.454C171.845 333.22 172.038 340.995 172.07 348.766C172.078 350.233 172.142 351.706 172.051 353.166C171.753 358.073 173.686 361.311 178.611 362.631C180.132 363.04 181.78 363.681 182.906 364.722C188.373 369.771 195.295 372.036 202.039 374.149C209.619 376.519 215.21 381.179 219.864 387.058C224.346 392.719 227.429 399.301 228.569 406.536C229.436 412.033 229.922 417.594 230.456 423.138C231.179 430.679 232.529 432.443 239.898 434.152C245.735 435.503 251.605 436.764 257.513 437.748C266.126 439.18 274.165 442.084 281.872 446.139C285.091 447.833 288.482 449.279 291.929 450.437C295.978 451.799 297.889 450.682 299.415 446.719C301.801 440.528 300.789 436.811 295.405 432.971C292.071 430.595 288.622 428.37 285.126 426.24C280.428 423.376 278.324 419.115 278.132 413.786C277.993 409.975 278.03 406.16 277.967 402.347C277.941 400.734 277.964 399.11 277.781 397.513C277.439 394.544 275.934 392.457 273.198 391.021C268.804 388.717 264.466 386.273 260.272 383.623C254.889 380.221 252.141 371.144 254.463 365.204C255.489 362.581 257.272 360.705 260.088 360.141C265.642 359.029 271.2 358.86 276.358 361.6C282.039 364.619 287.57 367.919 293.175 371.082C300.583 375.263 303.906 381.944 304.941 390.113C305.438 394.033 306.15 397.927 306.789 401.83C307.188 404.27 308.407 406.192 310.486 407.565C312.684 409.014 314.785 410.634 317.067 411.935C328.168 418.256 332.924 428.302 333.905 440.566C334.29 445.382 334.316 450.231 334.843 455.028C335.632 462.197 339.031 467.632 345.698 470.97C357.426 476.837 369.429 480.935 382.821 478.465C386.841 477.724 390.95 477.451 394.956 476.66C403.344 475.005 411.566 476.114 419.75 477.866C423.603 478.691 427.457 479.642 431.175 480.931C436.218 482.679 440.078 485.963 442.056 491.093C443.627 495.172 447.291 497.397 450.294 500.017C457.227 506.064 464.648 511.548 471.802 517.348C475.892 520.663 479.964 524.025 483.805 527.624C485.19 528.92 485.878 530.966 487.109 533.052C500.26 522.927 515.09 526.106 530.532 528.767C529.605 525.435 528.768 522.566 528.011 519.673C526.458 513.729 524.818 507.805 523.457 501.815C521.681 494.005 525.203 488.39 531.502 484.327C535.425 481.797 539.623 479.688 543.706 477.407C544.343 477.049 545.009 476.733 545.689 476.47C552.95 473.659 556.106 467.914 557.053 460.568C557.24 459.118 557.368 457.641 557.751 456.239C558.637 453.028 560.333 450.375 563.296 448.63C567.313 446.267 570.87 443.644 573.833 439.7C576.321 436.386 580.701 434.414 584.422 432.144C587.408 430.32 590.665 428.948 593.796 427.37C598.655 424.922 600.067 420.724 599.694 415.633C599.662 415.196 599.586 414.759 599.499 414.329C598.081 407.331 600.386 401.962 606.426 398.162C611.227 395.143 614.367 390.917 615.677 385.316C616.04 383.77 616.73 382.255 617.513 380.864C619.176 377.902 620.6 374.918 620.891 371.435C620.994 370.206 621.852 369.042 622.477 367.587C622.272 367.2 621.97 366.542 621.597 365.933C616.077 356.946 610.696 347.869 604.993 339C590.681 316.748 575.037 295.641 554.752 278.281C535.034 261.411 512.912 248.927 488.784 239.704C472.972 233.661 456.619 229.962 439.952 227.483C436.343 226.947 432.67 226.822 429.025 226.539C423.52 226.113 418.046 225.841 412.562 224.733C406.739 223.556 400.667 223.299 394.697 223.243C373.607 223.047 352.579 224.281 331.686 227.198C304.537 230.985 278.671 239.115 254.006 251.065C250.736 252.651 247.682 254.711 244.61 256.679C242.219 258.213 240.452 258.33 239.18 256.743C237.924 255.171 238.283 253.112 240.327 251.365C241.542 250.326 242.875 249.34 244.311 248.66C261.514 240.521 278.91 232.847 297.368 227.962C316.654 222.859 336.268 219.653 356.174 218.494C368.874 217.754 381.605 216.844 394.308 217.023C421.886 217.412 449.248 220.396 475.732 228.401C511.287 239.149 542.856 256.94 569.528 283.252C584.461 297.983 596.462 314.931 608.077 332.188C615.928 343.848 623.308 355.846 630.437 367.969C643.333 389.907 654.18 412.821 659.934 437.771C663.387 452.752 666.006 467.926 668.945 483.025C669.333 485.019 669.393 487.078 669.63 489.344C677.033 492.976 680.294 499.958 682.953 507.887C684.283 507.164 685.456 506.672 686.466 505.953C693.928 500.639 702.376 499.544 711.168 500.315C715.657 500.71 719.603 502.779 722.85 505.896C727.635 510.484 730.649 516.126 731.857 522.658C732.078 523.859 732.118 525.785 731.421 526.338C729.276 528.044 728.951 530.511 727.905 532.695C724.756 539.259 718.987 541.819 712.216 542.161C708.479 542.35 704.695 541.596 700.679 541.245C700.261 541.992 699.684 542.824 699.297 543.739C696.695 549.877 691.68 552.75 685.444 552.765C680.54 552.776 675.446 552.141 670.772 550.699C663.532 548.467 656.693 548.148 649.431 550.638C645.069 552.135 640.278 552.594 635.635 553.007C624.435 554.002 613.208 554.696 601.654 555.536C601.66 555.525 601.276 555.837 601.175 556.221C599.584 562.332 596.981 564.739 590.539 565.369C587.926 565.624 586.11 566.58 584.109 568.357C577.826 573.942 570.57 577.656 561.848 577.168C557.353 576.917 552.877 576.311 547.954 575.821C541.731 581.603 535.034 587.553 525.102 586.959C516.246 586.429 507.395 585.981 501.266 577.734C500.206 578.394 499.243 578.962 498.312 579.58C489.983 585.109 480.9 586.328 471.432 583.693C458.682 580.144 455.763 568.18 465.421 559.147C468.15 556.594 471.571 554.784 475.099 552.342C473.206 544.545 479.571 540.259 484.408 534.848C480.244 533.656 477.646 530.981 475.312 527.926C474.43 526.771 473.382 525.699 472.247 524.791C465.407 519.304 458.483 513.92 451.663 508.407C447.57 505.1 443.54 501.702 439.647 498.163C438.512 497.133 437.708 495.567 437.159 494.094C435.601 489.899 432.623 487.251 428.495 486.013C416.64 482.453 404.757 480.174 392.225 482.864C384.402 484.545 376.312 485.581 368.245 484.371C357.705 482.794 347.851 479.168 338.885 473.372C333.674 470.004 330.9 464.791 329.805 458.852C328.96 454.262 328.832 449.543 328.334 444.886C327.914 440.965 327.864 436.933 326.867 433.161C325.002 426.102 321.006 420.424 314.354 416.94C313.836 416.67 313.346 416.347 312.857 416.025C301.518 408.582 302.32 409.435 299.69 394.95C299.09 391.645 298.658 388.294 297.824 385.047C296.953 381.668 294.893 378.923 291.882 377.147C285.712 373.509 279.505 369.92 273.202 366.523C269.837 364.709 266.057 365.295 262.42 365.581C260.508 365.732 259.772 367.197 259.483 368.916C258.817 372.874 260.808 377.406 264.308 379.456C268.337 381.818 272.432 384.067 276.54 386.286C281.445 388.938 283.468 393.265 283.651 398.582C283.805 402.979 283.838 407.387 283.695 411.785C283.546 416.306 285.096 419.686 289.082 422.045C292.604 424.126 295.954 426.498 299.35 428.787C308.725 435.101 307.454 445.047 302.907 452.464C300.62 456.195 296.393 457.785 292.192 456.512C288.438 455.376 284.662 454.017 281.236 452.135C272.936 447.578 264.27 444.325 254.89 442.9C249.838 442.129 244.823 441.059 239.839 439.917C237.289 439.333 234.793 438.423 232.365 437.435C227.867 435.608 225.573 432.148 225.161 427.291C224.67 421.449 224.189 415.595 223.422 409.784C221.943 398.602 216.472 389.693 207.521 382.936C206.258 381.982 204.756 381.284 203.275 380.695C198.252 378.696 193.127 376.943 188.167 374.802C185.655 373.717 183.433 371.97 181.048 370.577C179.296 369.557 177.561 368.456 175.696 367.692C168.513 364.738 166.296 361.853 166.356 354.038C166.465 339.671 166.814 325.305 167.048 310.937C167.088 308.5 167.054 306.061 167.054 302.594Z" fill="black"/>
<path fill-rule="evenodd" clip-rule="evenodd" d="M337.979 158.703C343.097 158.3 346.753 156.114 348.959 151.795C350.231 149.305 351.875 147.765 354.543 147.366C355.551 147.215 356.589 147.227 357.582 147.008C360.458 146.378 362.83 143.309 363.247 139.792C363.622 136.628 362.486 134.717 359.275 133.107C353.957 130.442 348.615 131.644 344.726 136.381C340.232 141.857 340.233 141.856 335.845 136.718C335.559 136.383 335.241 136.067 334.902 135.787C332.425 133.748 330.367 133.838 327.778 136.085C325.78 137.819 323.908 137.812 321.686 135.409C318.716 132.205 314.875 132.047 312.161 133.583C308.734 135.523 304.888 141.195 305.908 144.157C307.117 147.663 306.625 150.813 306.012 154.214C305.453 157.324 306.738 158.982 309.755 159.737C314.21 160.854 318.118 159.869 321.35 156.401C325.203 152.263 325.688 152.336 330.549 155.329C332.853 156.747 335.492 157.597 337.979 158.703ZM326.122 160.056C321.73 164.594 316.487 166.598 310.247 165.845C303.087 164.979 299.183 160.165 300.339 152.91C300.75 150.335 300.545 148.001 300.16 145.469C298.476 134.448 310.435 124.11 320.856 127.549C322.901 128.223 324.637 128.184 326.712 127.904C329.047 127.588 331.621 128.07 333.913 128.795C336.093 129.484 338.043 130.937 340.316 132.175C341.039 131.566 341.956 130.848 342.809 130.062C349.136 124.222 358.269 125.531 363.231 128.679C368.095 131.768 369.809 135.803 368.653 141.645C367.393 148.015 363.476 152.014 357.333 153.061C356.018 153.286 354.911 153.382 354.066 154.779C347.66 165.367 336.076 166.47 327.491 160.474C327.267 160.317 326.948 160.302 326.122 160.056Z" fill="black"/>
<mask id="mask0" mask-type="alpha" maskUnits="userSpaceOnUse" x="0" y="555" width="19" height="20">
<path fill-rule="evenodd" clip-rule="evenodd" d="M0 574.968V555.383H18.9031V574.968H0H0Z" fill="white"/>
</mask>
<g mask="url(#mask0)">
<path fill-rule="evenodd" clip-rule="evenodd" d="M9.20952 561.338C6.42863 562.978 5.408 564.326 5.90303 566.304C6.13744 567.235 7.01102 568.391 7.87295 568.693C8.73051 568.99 10.3175 568.657 10.8839 568.02C11.427 567.407 11.3105 565.984 11.0499 565.029C10.7266 563.848 9.95643 562.781 9.20952 561.338ZM11.4808 555.383C12.3704 555.534 13.9021 555.549 15.1979 556.089C16.1312 556.481 17.13 557.459 17.4328 558.38C18.1215 560.473 18.4607 562.681 18.8247 564.862C19.5265 569.065 15.4134 574.028 10.6305 574.838C5.97583 575.628 1.34295 572.744 0.280096 568.399C-1.31127 561.894 4.06706 555.316 11.4808 555.383Z" fill="black"/>
</g>
<path fill-rule="evenodd" clip-rule="evenodd" d="M696.2 478.922C698.647 478.96 700.563 477.498 700.464 475.666C700.367 473.858 698.538 471.561 697.204 471.574C695.569 471.588 692.958 474.492 692.836 476.434C692.747 477.862 694.134 478.889 696.2 478.922ZM696.244 485C694.384 484.422 692.369 484.113 690.658 483.201C687.496 481.515 686.297 478.093 687.403 474.61C688.509 471.122 690.64 468.453 693.885 466.853C698.155 464.744 704.307 466.734 706.106 470.748C708.265 475.566 706.408 481.045 701.676 483.316C700.039 484.101 698.187 484.415 696.244 485Z" fill="black"/>
<path fill-rule="evenodd" clip-rule="evenodd" d="M145.022 301.249C143.737 300.873 142.966 300.61 142.179 300.452C142.02 300.419 141.79 300.783 141.419 301.126C142.225 302.56 143.118 302.786 145.022 301.249ZM143.593 309C139.904 308.923 137.263 307.778 135.777 304.554C134.4 301.565 134.887 297.606 136.973 295.301C139.321 292.702 142.116 292.632 145.27 293.495C148.399 294.352 150.886 295.77 151.797 299.206C152.77 302.877 150.145 307.104 146.078 308.489C145.141 308.808 144.131 308.893 143.593 309Z" fill="black"/>
<path fill-rule="evenodd" clip-rule="evenodd" d="M108.302 520.309C107.734 514.963 110.222 510.422 114.427 506.397C120.207 500.866 126.714 497.516 134.844 497.439C139.319 497.398 142.805 499.006 145.667 502.318C146.05 502.765 146.398 503.243 146.767 503.705C150.59 508.508 152.87 508.68 156.866 503.847C162.35 497.22 168.905 495.563 176.946 498.188C183.199 500.23 186.24 504.51 186.84 510.879C186.98 512.351 186.88 513.866 187.178 515.299C187.828 518.419 190.14 519.655 193.116 518.576C194.762 517.98 196.313 517.006 198.001 516.653C204.019 515.393 211.386 518.832 213.787 523.843C216.306 529.094 214.781 536.826 210.332 541.058C207.498 543.755 204.229 545.568 200.291 546.167C194.475 547.051 188.744 548.057 182.961 545.699C180.253 544.596 178.174 545.702 176.753 548.381C176.069 549.672 175.584 551.102 175.211 552.523C173.345 559.618 168.427 563.744 162.023 566.378C152.055 570.481 141.82 570.979 131.397 568.475C130.826 568.337 130.144 568.364 129.701 568.046C123.68 563.747 116.097 561.526 112.052 554.582C111.757 554.073 111.381 553.608 111.003 553.157C108.482 550.16 105.987 549.479 102.403 550.916C100.771 551.569 99.2367 552.471 97.606 553.126C94.6807 554.302 91.7393 554.755 88.6158 553.601C87.3095 553.116 85.7595 553.197 84.3211 553.203C81.4927 553.217 80.7177 552.631 80.2348 549.813C79.0987 543.175 82.1444 537.051 88.0918 533.858C91.8215 531.855 95.9166 530.913 99.978 531.109C107.167 531.456 108.686 528.015 108.303 521.82C108.286 521.523 108.302 521.227 108.302 520.309Z" fill="white"/>
<path fill-rule="evenodd" clip-rule="evenodd" d="M589.473 527.93C584.45 531.268 581.252 535.852 579.347 541.422C578.353 544.329 578.38 545.1 580.636 547.198C584.03 550.351 587.831 552.735 592.585 553.274C593.731 553.404 594.864 553.666 595.939 553.856C596.265 557.394 595.33 558.691 592.06 559.491C586.017 560.97 585.335 561.345 580.643 565.263C572.431 572.126 563.09 572.613 553.223 569.98C552.52 569.791 551.878 569.392 551.185 569.151C548.107 568.079 547.346 568.422 545.285 571.105C540.385 577.481 534.239 581.548 525.792 580.94C522.581 580.709 519.334 580.468 516.204 579.783C512.375 578.945 509.247 576.96 507.205 573.34C504.928 569.299 502.804 569.116 499.206 572.373C492.328 578.597 484.304 580.239 475.451 578.162C471.832 577.314 468.131 575.952 467.202 571.816C466.26 567.608 468.753 564.561 471.766 561.995C474.753 559.453 478.117 557.792 482.198 558.052C482.636 558.08 483.078 558.054 483.519 558.049C485.179 558.03 486.631 557.299 486.685 555.669C486.724 554.602 485.714 553.467 485.061 552.431C484.866 552.121 484.294 552.045 483.894 551.865C482.026 551.018 481.758 549.479 482.446 547.844C483.002 546.523 483.807 545.248 484.742 544.155C492.954 534.562 503.22 530.01 515.985 531.772C519.62 532.274 523.277 532.697 526.856 533.46C528.665 533.846 530.41 534.768 532.037 535.701C535.366 537.611 536.985 537.693 539.301 534.78C543.639 529.319 549.402 525.954 555.521 523.014C562.581 519.621 570.051 518.481 577.808 519.211C579.541 519.373 581.265 519.866 582.938 520.387C586.415 521.466 588.789 523.633 589.473 527.93Z" fill="white"/>
<path fill-rule="evenodd" clip-rule="evenodd" d="M727 522.978C725.503 525.285 724.224 526.85 723.394 528.619C721.681 532.27 718.788 534.278 714.843 534.38C711.809 534.458 708.73 534.006 705.719 533.504C700.638 532.657 698.284 533.727 696.215 538.204C693.545 543.981 690.34 545.961 683.709 544.949C678.087 544.092 672.511 542.767 667.036 541.23C663.505 540.239 660.324 540.334 656.76 541.207C649.682 542.941 642.501 544.506 635.267 545.313C626.119 546.335 616.88 546.758 607.67 546.989C603.031 547.104 598.364 546.255 593.715 545.774C592.711 545.669 591.68 545.405 590.754 545.002C586.864 543.314 585.867 539.566 588.377 536.189C590.712 533.05 593.885 530.954 597.648 529.995C602.634 528.725 607.731 528.266 612.873 529.286C618.558 530.415 620.466 529.303 623.548 524.235C627.141 518.33 630.941 512.532 634.906 506.86C636.713 504.277 638.996 501.972 641.3 499.777C649.246 492.202 658.79 491.8 668.718 494.577C673.476 495.907 675.592 500.145 677.402 504.307C678.145 506.017 678.515 507.881 679.247 509.598C680.803 513.262 683.671 514.424 687.416 512.87C688.886 512.26 690.274 511.399 691.581 510.488C697.205 506.569 703.513 505.176 710.29 505.497C717.464 505.833 722.425 509.418 725.119 515.828C726.158 518.304 726.512 521.056 727 522.978Z" fill="white"/>
<path fill-rule="evenodd" clip-rule="evenodd" d="M112 497.343C108.754 501.448 104.897 504.931 102.867 509.29C100.913 513.487 100.852 518.586 99.8927 523.637C97.4396 523.986 94.5746 524.269 91.7621 524.824C85.907 525.983 80.7228 528.453 76.9732 533.363C73.727 537.616 72.3084 542.445 72.8074 547.822C72.9704 549.575 73.161 551.327 73.3574 553.265C68.7785 556.392 63.635 556.396 58.4536 555.446C54.4159 554.704 51.7096 552.19 50.6401 548.061C50.5659 547.778 50.4699 547.498 50.3928 547.217C48.6147 540.793 46.7407 540.171 41.4284 544.261C35.5632 548.774 28.1833 546.506 24.4933 539.907C23.808 538.683 23.907 536.637 24.3624 535.206C25.2892 532.302 26.4169 529.375 27.9839 526.781C31.1341 521.563 36.02 519.87 41.862 520.828C47.0855 521.682 47.5497 521.274 49.5445 516.299C52.4196 509.128 57.0175 503.869 65.026 502.277C69.2892 501.43 72.627 502.852 76.0376 505.086C78.5519 506.734 81.267 508.169 84.0635 509.248C87.0405 510.397 88.3762 509.685 89.3933 506.636C91.7912 499.451 97.3377 496.497 104.092 495.182C106.987 494.617 109.155 495.378 112 497.343Z" fill="#CCCCCC"/>
<path fill-rule="evenodd" clip-rule="evenodd" d="M136 326.179C131.378 332.121 126.588 337.617 122.57 343.614C117.01 351.915 111.913 360.526 106.849 369.135C103.476 374.869 93.6806 377.038 88.5317 372.728C87.2801 371.678 86.4736 369.989 85.7875 368.455C85.2719 367.3 85.3601 365.9 85.0369 364.645C84.2568 361.606 82.3163 360.267 79.1843 360.832C77.3275 361.169 75.5661 361.998 73.7284 362.48C69.408 363.613 66.9268 362.077 66.163 357.71C65.3785 353.228 67.5056 349.867 70.8374 347.143C76.7193 342.33 83.4107 340.472 90.9805 342.12C91.9839 342.339 92.9799 342.587 93.9861 342.791C98.2198 343.645 100.224 342.42 101.696 338.446C102.739 335.631 103.561 332.533 105.364 330.227C111.134 322.837 119.265 320.413 128.413 321.116C131.589 321.36 134.165 323.129 136 326.179Z" fill="#CCCCCC"/>
<path fill-rule="evenodd" clip-rule="evenodd" d="M337.916 157.604C335.454 156.553 332.841 155.748 330.56 154.402C325.748 151.563 325.268 151.493 321.453 155.419C318.254 158.709 314.384 159.644 309.973 158.584C306.987 157.868 305.715 156.295 306.268 153.345C306.875 150.118 307.363 147.129 306.166 143.803C305.155 140.993 308.963 135.612 312.356 133.772C315.043 132.314 318.845 132.464 321.785 135.504C323.986 137.783 325.839 137.79 327.816 136.145C330.38 134.013 332.418 133.928 334.87 135.862C335.205 136.128 335.52 136.428 335.803 136.746C340.148 141.62 340.146 141.621 344.596 136.426C348.445 131.932 353.735 130.792 359 133.32C362.179 134.848 363.303 136.661 362.932 139.662C362.518 142.998 360.171 145.91 357.323 146.508C356.34 146.716 355.312 146.704 354.315 146.848C351.673 147.226 350.046 148.687 348.787 151.05C346.602 155.147 342.982 157.221 337.916 157.604Z" fill="white"/>
<path fill-rule="evenodd" clip-rule="evenodd" d="M9.74795 561C10.5649 562.74 11.4073 564.026 11.7608 565.45C12.0459 566.601 12.1733 568.318 11.5793 569.056C10.9598 569.825 9.22403 570.226 8.28608 569.867C7.34334 569.503 6.38787 568.11 6.13149 566.987C5.59005 564.603 6.70636 562.977 9.74795 561Z" fill="white"/>
<path fill-rule="evenodd" clip-rule="evenodd" d="M696.97 477.999C694.534 477.968 692.9 476.99 693.005 475.63C693.148 473.78 696.226 471.013 698.154 471C699.726 470.987 701.881 473.176 701.996 474.898C702.112 476.643 699.854 478.036 696.97 477.999Z" fill="white"/>
<path fill-rule="evenodd" clip-rule="evenodd" d="M146 300.861C143.887 302.518 142.895 302.275 142 300.728C142.412 300.359 142.667 299.967 142.844 300.002C143.718 300.172 144.573 300.456 146 300.861Z" fill="white"/>
<path fill-rule="evenodd" clip-rule="evenodd" d="M106.882 346.998C104.325 347.063 102.876 345.616 103.008 343.871C103.144 342.064 104.262 341.145 105.923 341.008C107.598 340.868 109.391 342.582 108.925 344.139C108.56 345.362 107.383 346.332 106.882 346.998Z" fill="black"/>
<path fill-rule="evenodd" clip-rule="evenodd" d="M370.8 346.701C371.615 348.265 371.84 349.513 372.47 349.771C375.015 350.806 377.637 351.788 380.324 352.297C382.397 352.693 382.478 351.036 382.309 349.428C378.64 348.56 375.16 347.735 370.8 346.701ZM366.009 338.53C372.697 342.808 378.673 345.358 385.622 344.545C385.056 339.13 381.559 338.127 377.514 337.851C375.473 337.711 373.43 337.399 371.395 337.456C369.915 337.5 368.447 338.02 366.009 338.53ZM436.85 359.4C429.949 350.953 423.543 343.115 417.136 335.275C416.816 335.427 416.497 335.577 416.179 335.729C416.57 337.15 416.618 338.817 417.424 339.943C419.288 342.544 421.467 344.93 423.612 347.32C426.251 350.263 428.976 353.125 431.676 356.01C433.518 357.982 434.11 359.996 433.166 362.789C431.956 366.371 431.245 370.152 430.631 373.897C429.766 379.19 428.585 384.48 429.021 389.948C432.051 390.291 431.82 387.919 432.092 386.462C433.804 377.279 435.347 368.064 436.85 359.4ZM379.15 308.607C377.755 315.672 376.525 321.909 375.382 327.701C377.216 329.863 378.762 331.684 380.457 333.68C383.001 334.578 385.877 335.619 388.774 336.601C390.145 337.068 391.547 337.453 392.949 337.821C394.854 338.32 396.044 337.605 396.533 335.669C397.599 331.446 398.697 327.233 399.736 323.197C394.147 316.74 386.993 313.091 379.15 308.607ZM379.024 306.118C380.239 306.919 381.174 307.58 382.148 308.17C388.277 311.879 394.549 315.341 399.788 320.382C401.412 321.947 401.87 323.215 401.153 325.311C400.21 328.07 399.647 330.959 398.826 333.762C398.34 335.423 398.038 337.349 396.976 338.566C396 339.687 394.12 340.019 392.826 340.609C395.335 342.18 397.947 343.681 400.415 345.394C402.952 347.158 405.593 348.418 408.851 348.278C409.053 347.706 409.333 347.175 409.424 346.615C410.202 341.862 410.86 337.088 411.72 332.35C413.128 324.58 414.525 316.804 416.212 309.093C416.821 306.316 416.063 304.754 413.751 303.366C409.741 300.958 405.779 298.451 401.925 295.798C393.729 290.159 385.645 284.359 377.446 278.724C375.47 277.367 373.223 276.397 370.366 274.85C368.23 291.972 367.944 308.235 368.227 324.631C370.067 325.346 371.641 325.957 373.848 326.815C374.611 321.765 375.475 317.201 375.924 312.599C376.182 309.953 376.977 307.802 379.024 306.118ZM437.336 389.151C439.892 389.532 441.773 389.69 443.591 390.122C445.285 390.524 446.986 391.06 448.546 391.821C450.779 392.908 451.502 394.732 450.658 396.406C449.884 397.938 448.293 398.346 446.075 397.528C445.39 397.274 444.763 396.871 444.091 396.592C438.217 394.155 432.393 393.995 426.835 397.384C424.038 399.087 421.662 399.297 418.753 397.381C413.647 394.015 406.097 395.673 402.371 400.593C402.106 400.942 401.896 401.337 401.607 401.664C400.535 402.884 399.259 403.481 397.742 402.531C396.073 401.487 395.777 399.796 396.781 398.346C398.003 396.581 399.432 394.711 401.221 393.632C407.165 390.042 413.54 389.287 420.148 391.827C420.806 392.079 421.464 392.328 422.095 392.567C423.618 383.46 425.034 374.54 426.63 365.651C427.266 362.119 426.85 359.115 424.297 356.372C421.53 353.396 419.033 350.171 415.713 346.215C415.244 348.634 414.926 350.093 414.684 351.564C414.004 355.712 412.903 355.625 408.803 354.84C402.232 353.582 397.521 348.918 390.813 346.822C386.722 349.525 385.023 354.218 383.878 359.249C383.489 360.954 383.348 362.776 382.621 364.321C382.246 365.118 380.686 365.993 379.927 365.799C379.144 365.597 378.092 364.063 378.196 363.247C378.507 360.819 379.327 358.455 380.048 355.682C377.764 355.461 375.543 355.25 373.206 355.026C373.398 358.415 376.532 356.721 377.566 358.351C378.062 360.781 375.53 359.745 374.579 360.886C374.692 361.717 375.149 362.802 374.879 363.662C374.532 364.769 373.739 366.333 372.888 366.513C372.062 366.689 370.697 365.534 369.984 364.633C369.412 363.909 369.434 362.699 369.244 361.695C368.371 357.104 367.487 352.513 366.667 347.911C366.296 345.837 365.465 344.164 363.934 342.588C360.841 339.408 361.588 335.983 365.632 334.25C367.351 333.513 369.273 333.245 371.669 332.615C369.603 331.376 367.884 330.199 366.04 329.274C363.03 327.761 361.852 325.214 362.015 322.099C362.699 309.105 363.473 296.116 364.28 283.129C364.516 279.338 364.796 275.533 365.369 271.785C365.931 268.103 367.591 267.05 370.835 268.879C377.058 272.387 383.149 276.182 389.01 280.265C398.125 286.616 406.826 293.581 416.982 298.317C417.774 298.686 418.529 299.151 419.26 299.633C422.589 301.825 423.311 303.95 422.302 307.883C420.993 312.98 419.783 318.1 418.522 323.209C418.044 325.143 418.586 326.656 419.54 328.501C423.843 336.832 430.113 343.515 436.41 350.275C438.818 352.858 440.561 356.132 442.218 359.296C442.8 360.401 442.391 362.149 442.138 363.549C440.624 371.883 439.024 380.202 437.336 389.151Z" fill="black"/>
<path fill-rule="evenodd" clip-rule="evenodd" d="M243.556 206.217C251.121 205.628 257.664 204.303 263.46 200.367C264.138 199.905 264.373 198.779 265.045 197.536C260 196.016 255.951 197.911 252.011 199.511C248.935 200.761 245.513 201.903 243.556 206.217ZM263.994 205.834C259.491 207.318 255.748 208.551 251.628 209.91C253.751 214.333 255.725 218.447 257.625 222.411C260.045 222.379 261.588 221.928 261.92 219.705C262.578 215.288 263.24 210.872 263.994 205.834ZM237.358 261.855C236.177 259.387 235.05 257.193 234.063 254.936C231.434 248.923 228.834 242.895 226.284 236.846C225.281 234.468 225.535 232.17 226.307 229.626C227.542 225.564 228.102 221.297 228.949 217.118L228.066 216.683C227.424 217.321 226.571 217.849 226.186 218.618C225.408 220.176 224.795 221.837 224.268 223.504C222.655 228.613 221.789 234.156 223.527 239.027C226.213 246.558 230.218 253.613 233.679 260.863C234.308 262.182 235.209 262.962 237.358 261.855ZM194.894 169.24C195.451 174.296 208.857 210.931 212.112 216.41C212.495 216.41 212.96 216.529 213.331 216.391C220.701 213.652 228.075 210.912 235.419 208.102C237.591 207.27 239.348 206.239 240.146 203.498C240.688 201.633 242.626 199.782 244.411 198.763C247.799 196.83 251.508 195.457 255.121 193.94C256.406 193.402 257.797 193.125 259.306 192.678C258.147 189.459 257.05 186.603 256.097 183.702C255.149 180.823 254.344 177.895 253.515 175.112C247.68 175.441 229.168 181.014 222.269 184.489C223.095 187.898 223.842 191.453 224.832 194.938C225.819 198.407 227.537 201.709 227.061 205.487C226.354 204.977 226.013 204.374 225.809 203.726C224.098 198.274 222.416 192.811 220.72 187.354C219.821 184.455 220.636 182.903 223.926 181.855C232.527 179.116 241.14 176.413 249.779 173.797C254.228 172.45 254.99 172.86 256.157 177.537C257.475 182.823 259.168 187.909 262.197 192.426C264.758 192.897 267.286 193.364 269.83 193.833C269.913 190.341 258.112 155.286 254.39 147.823C244.912 148.404 202.707 163.538 194.894 169.24ZM242.28 258.807C245.363 257.884 247.808 256.927 250.339 256.467C252.455 256.08 254.703 256.048 256.829 256.334C257.587 256.437 258.686 257.941 258.67 258.788C258.656 259.602 257.542 260.797 256.663 261.101C255.49 261.508 254.069 261.326 252.773 261.203C249.103 260.853 245.821 261.807 242.988 264.132C240.362 266.289 237.453 267.206 234.074 266.935C232.641 266.821 231.169 267.065 229.725 267.235C224.766 267.825 223.711 268.796 222.432 273.834C222.36 274.117 222.32 274.41 222.261 274.698C221.961 276.165 221.175 277.194 219.587 276.969C217.714 276.702 217.386 275.243 217.603 273.654C218.18 269.456 220.259 266.252 224.015 264.257C225.026 263.719 226.128 263.355 227.763 262.671C225.271 256.78 223.251 250.804 220.29 245.351C217.412 240.056 217.238 234.788 218.201 229.179C218.641 226.609 219.029 224.031 219.551 220.756C217.65 221.212 216.289 221.421 215.01 221.868C210.429 223.476 207.033 222.031 205.351 217.396C203.45 212.167 201.86 206.823 199.962 201.593C196.811 192.919 193.506 184.302 190.304 175.647C189.506 173.491 188.564 171.489 189.22 168.893C190.1 165.416 191.893 163.345 195.213 162.133C210.527 156.534 225.788 150.788 241.089 145.151C244.775 143.792 248.514 142.571 252.27 141.42C256.292 140.185 259.214 141.677 260.191 145.843C263.288 159.037 268.756 171.393 273.26 184.087C274.142 186.57 275.308 188.947 276.272 191.402C277.912 195.581 276.811 197.274 272.657 199.076C269.622 200.392 267.419 202.941 267.175 206.61C266.854 211.441 266.526 216.271 266.277 221.106C266.064 225.222 264.777 226.629 260.099 227.588C256.539 228.32 255.049 227.466 253.268 223.809C251.476 220.127 249.784 216.382 247.751 212.836C246.184 210.101 245.459 210.565 242.409 211.572C237.73 213.116 236.091 216.745 233.978 220.674C230.058 227.96 230.123 234.91 233.745 242.078C236.569 247.666 239.437 253.234 242.28 258.807Z" fill="black"/>
<path fill-rule="evenodd" clip-rule="evenodd" d="M434.837 168.501C438.108 169.089 441.378 169.678 444.65 170.267C441.35 167.561 439.919 167.303 434.837 168.501ZM441.151 189.369C438.376 190.304 437.74 191.784 437.261 193.539C434.939 202.035 433.706 218.598 435.545 222.416C435.915 210.995 438.475 200.542 441.151 189.369ZM437.208 186.101C438.268 181.795 441.825 178.709 442.347 174.135C438.114 173.403 434.176 172.724 429.542 171.922C430.596 177.08 431.506 181.549 432.436 186.101H437.208ZM427.445 163.152C426.892 162.603 425.881 162.07 425.859 161.5C425.719 157.863 425.769 154.218 425.812 150.574C425.828 149.008 426.888 148.148 428.292 147.933C429.428 147.761 430.655 147.832 431.789 148.053C438.581 149.379 445.348 150.833 452.147 152.124C454.222 152.52 455.285 153.511 455.356 155.591C455.471 158.944 455.698 162.295 455.727 165.648C455.748 168.001 455.514 170.357 455.372 173.167C458.985 173.478 463.008 173.826 467.132 174.181C469.87 160.656 472.525 147.542 475.247 134.102C470.422 133.01 465.75 131.674 460.984 130.929C446.839 128.723 432.642 126.872 418.312 126.334C415.279 126.22 412.226 126.6 408.861 126.771C408.496 140.195 407.492 153.055 408.353 165.947C413.571 166.721 418.209 167.411 422.845 168.099C422.36 167.445 421.872 166.792 421.387 166.138C423.368 165.103 425.35 164.068 427.349 163.053C430.986 163.176 434.649 163.069 438.253 163.478C443.948 164.122 450.173 163.722 454.119 169.617C453.897 164.648 453.672 159.681 453.433 154.322C445.28 152.618 437.315 150.954 428.932 149.203C428.742 151.715 428.652 153.578 428.446 155.43C428.158 158.009 427.784 160.578 427.445 163.152ZM448.605 176.468C445.961 191.379 440.215 205.198 440.678 220.617C442.413 220.704 443.702 220.651 444.949 220.854C447.985 221.349 451.073 221.725 454.002 222.601C456.333 223.301 457.151 225.058 456.518 226.527C455.859 228.058 454.19 228.532 451.982 227.294C447.274 224.652 442.418 224.57 437.415 226.023C434.806 226.781 432.6 226.297 430.303 224.849C426.357 222.363 425.491 222.632 421.888 225.485C421.139 226.078 419.621 226.367 418.76 226.034C417.304 225.467 417.317 223.98 417.885 222.645C418.688 220.756 420.142 219.538 422.187 219.263C424.351 218.972 426.546 218.901 429.132 218.704C430.316 210.007 431.514 201.221 432.751 192.141C428.826 191.093 427.822 188.322 427.593 184.645C427.404 181.634 426.427 178.627 425.441 175.736C425.092 174.717 423.801 173.544 422.743 173.308C418.739 172.416 414.677 171.525 410.598 171.297C405.231 170.997 402.837 168.739 403.009 163.537C403.396 151.73 403.689 139.919 403.944 128.108C404.02 124.574 405.575 122.803 410.088 122.242C412.706 121.915 415.403 121.97 418.051 122.111C434.874 122.995 451.58 124.892 468.158 127.893C471.34 128.468 474.622 128.563 477.757 129.295C481.363 130.137 481.496 131.231 480.388 134.641C478.816 139.479 477.423 144.412 476.471 149.401C474.886 157.705 473.689 166.083 472.374 174.435C471.742 178.446 471.263 178.178 467.206 178.766C462.57 179.438 458.492 177.888 454.176 177.248C452.595 177.015 451.007 176.806 448.605 176.468Z" fill="black"/>
<path fill-rule="evenodd" clip-rule="evenodd" d="M378.779 164.41C374.524 164.623 370.676 162.751 366.287 163.601C366.455 166.252 366.61 168.654 366.771 171.182H378.779V164.41ZM363.785 171.101C363.785 169.171 363.765 167.849 363.788 166.527C363.867 162.3 364.953 161.229 369.186 161.516C371.853 161.7 374.497 162.251 377.165 162.405C379.531 162.542 380.655 163.631 380.896 165.95C381.08 167.698 381.48 169.423 381.798 171.233H386.841C388.026 166.594 389.401 162.193 388.825 157.476C388.607 155.685 388.102 154.322 385.932 154.252C378.65 154.016 371.372 153.666 364.09 153.487C362.673 153.453 361.244 153.991 359.722 154.285C358.95 159.923 358.411 165.2 359.637 170.711C360.883 170.828 362.023 170.935 363.785 171.101ZM378.066 177.061C378.376 179.052 378.649 180.356 378.761 181.674C378.849 182.699 379.001 183.849 378.643 184.75C378.184 185.911 377.46 187.348 376.452 187.822C374.896 188.552 374.247 186.872 373.524 185.763C373.372 185.532 373.083 185.388 372.855 185.207C372.604 185.276 372.235 185.264 372.129 185.424C371.126 186.964 370.089 188.678 367.923 187.719C365.831 186.789 365.539 184.802 365.935 182.751C366.299 180.864 366.792 179.003 367.368 176.536C364.445 176.736 361.804 176.732 359.229 177.135C354.827 177.824 352.946 176.583 353.001 172.107C353.076 166.141 353.31 160.162 353.852 154.225C354.286 149.485 356.152 147.906 360.827 148.004C369.6 148.185 378.372 148.503 387.135 148.925C391.6 149.138 393.459 150.58 393.829 155.108C394.237 160.119 393.805 165.201 393.659 170.25C393.631 171.275 393.193 172.28 393.047 173.309C392.498 177.182 391.875 177.791 387.935 177.666C384.844 177.567 381.761 177.294 378.066 177.061Z" fill="black"/>
<path fill-rule="evenodd" clip-rule="evenodd" d="M463.993 396.081C463.848 397.846 461.665 399.214 459.369 398.972C456.586 398.681 454.711 396.811 455.037 394.649C455.319 392.77 456.785 391.852 459.233 392.019C461.82 392.197 464.148 394.183 463.993 396.081Z" fill="black"/>
<path fill-rule="evenodd" clip-rule="evenodd" d="M463 223.361C461.429 224.594 460.604 225.63 459.595 225.941C458.259 226.352 456.583 224.526 457.094 223.211C457.483 222.213 458.695 221.059 459.596 221.002C460.473 220.943 461.419 222.194 463 223.361Z" fill="black"/>
<path fill-rule="evenodd" clip-rule="evenodd" d="M412.792 220C411.904 218.481 410.988 217.583 411 216.698C411.007 216.101 412.27 215.132 413.067 215.022C414.468 214.831 415.275 215.91 414.914 217.267C414.705 218.064 413.85 218.688 412.792 220Z" fill="black"/>
<path fill-rule="evenodd" clip-rule="evenodd" d="M380.826 305.507C378.791 307.204 378 309.371 377.743 312.037C377.297 316.675 376.436 321.273 375.679 326.362C373.485 325.497 371.92 324.882 370.091 324.162C369.81 307.639 370.094 291.253 372.218 274C375.058 275.559 377.29 276.536 379.257 277.904C387.409 283.581 395.446 289.426 403.595 295.108C407.427 297.781 411.366 300.307 415.353 302.734C417.65 304.133 418.405 305.706 417.8 308.504C416.122 316.275 414.732 324.11 413.332 331.939C412.479 336.714 411.823 341.524 411.051 346.313C410.961 346.878 410.682 347.412 410.48 347.989C407.242 348.13 404.616 346.862 402.093 345.083C399.64 343.357 397.043 341.844 394.549 340.262C395.835 339.667 397.704 339.332 398.674 338.203C399.73 336.977 400.03 335.036 400.514 333.362C401.33 330.537 401.889 327.627 402.827 324.846C403.54 322.734 403.084 321.456 401.47 319.88C396.262 314.8 390.024 311.311 383.932 307.574C382.963 306.98 382.033 306.314 380.826 305.507Z" fill="white"/>
<path fill-rule="evenodd" clip-rule="evenodd" d="M380.714 309C388.443 313.581 395.49 317.308 401 323.905C399.976 328.027 398.893 332.332 397.844 336.645C397.361 338.623 396.189 339.354 394.312 338.842C392.93 338.466 391.548 338.074 390.196 337.597C387.342 336.593 384.508 335.529 382.002 334.614C380.33 332.574 378.808 330.715 377 328.506C378.126 322.589 379.339 316.218 380.714 309Z" fill="white"/>
<path fill-rule="evenodd" clip-rule="evenodd" d="M438 358.813C436.546 367.366 435.053 376.461 433.397 385.528C433.133 386.965 433.357 389.305 430.426 388.967C430.002 383.57 431.146 378.348 431.984 373.123C432.578 369.426 433.265 365.695 434.436 362.158C435.349 359.401 434.776 357.413 432.994 355.469C430.382 352.619 427.745 349.794 425.192 346.89C423.116 344.53 421.008 342.175 419.205 339.608C418.425 338.496 418.379 336.851 418 335.448C418.308 335.298 418.617 335.15 418.926 335C425.125 342.739 431.323 350.475 438 358.813Z" fill="white"/>
<path fill-rule="evenodd" clip-rule="evenodd" d="M367 338.043C369.36 337.55 370.783 337.048 372.218 337.007C374.188 336.952 376.168 337.252 378.145 337.387C382.063 337.655 385.452 338.623 386 343.855C379.268 344.64 373.478 342.176 367 338.043Z" fill="white"/>
<path fill-rule="evenodd" clip-rule="evenodd" d="M372 347C376.524 348.097 380.134 348.972 383.941 349.893C384.115 351.599 384.032 353.357 381.881 352.937C379.093 352.396 376.373 351.355 373.733 350.257C373.079 349.983 372.845 348.659 372 347Z" fill="white"/>
<path fill-rule="evenodd" clip-rule="evenodd" d="M195 169.218C202.82 163.569 245.061 148.574 254.546 148C258.271 155.393 270.083 190.124 270 193.584C267.453 193.12 264.923 192.658 262.36 192.191C259.328 187.715 257.634 182.676 256.314 177.441C255.147 172.805 254.384 172.4 249.932 173.734C241.285 176.325 232.665 179.003 224.057 181.716C220.764 182.755 219.948 184.294 220.848 187.165C222.545 192.572 224.229 197.984 225.941 203.386C226.145 204.028 226.487 204.625 227.195 205.13C227.67 201.388 225.951 198.117 224.963 194.68C223.972 191.227 223.225 187.704 222.398 184.326C229.303 180.883 247.83 175.364 253.67 175.036C254.501 177.794 255.306 180.694 256.255 183.547C257.209 186.422 258.306 189.25 259.466 192.44C257.956 192.882 256.564 193.158 255.278 193.692C251.662 195.194 247.95 196.555 244.559 198.469C242.772 199.478 240.833 201.312 240.29 203.161C239.492 205.876 237.733 206.897 235.559 207.721C228.209 210.507 220.829 213.221 213.453 215.934C213.082 216.071 212.616 215.953 212.233 215.953C208.976 210.525 195.557 174.228 195 169.218Z" fill="white"/>
<path fill-rule="evenodd" clip-rule="evenodd" d="M239 261.468C236.82 262.583 235.906 261.798 235.268 260.469C231.757 253.173 227.694 246.071 224.969 238.491C223.206 233.586 224.085 228.008 225.721 222.864C226.256 221.186 226.877 219.516 227.667 217.946C228.058 217.173 228.923 216.641 229.574 216L230.47 216.436C229.611 220.643 229.043 224.94 227.79 229.026C227.006 231.589 226.749 233.9 227.766 236.294C230.353 242.384 232.99 248.45 235.657 254.503C236.659 256.775 237.802 258.984 239 261.468Z" fill="white"/>
<path fill-rule="evenodd" clip-rule="evenodd" d="M265 205C264.268 210.168 263.626 214.696 262.988 219.226C262.667 221.504 261.168 221.968 258.82 222C256.975 217.936 255.06 213.716 253 209.179C256.999 207.787 260.63 206.523 265 205Z" fill="white"/>
<path fill-rule="evenodd" clip-rule="evenodd" d="M245 207C246.912 202.331 250.256 201.095 253.263 199.742C257.113 198.01 261.07 195.959 266 197.604C265.343 198.95 265.114 200.169 264.451 200.668C258.787 204.929 252.392 206.362 245 207Z" fill="white"/>
<path fill-rule="evenodd" clip-rule="evenodd" d="M427.251 162.821C425.277 163.86 423.301 164.897 421.327 165.936C421.812 166.59 422.297 167.247 422.78 167.902C418.16 167.212 413.538 166.52 408.338 165.744C407.481 152.816 408.481 139.92 408.845 126.459C412.198 126.289 415.24 125.907 418.263 126.021C432.543 126.56 446.691 128.416 460.788 130.628C465.536 131.375 470.192 132.716 475 133.81C472.288 147.287 469.642 160.438 466.914 174C462.803 173.644 458.795 173.295 455.194 172.983C455.336 170.168 455.569 167.803 455.548 165.443C455.519 162.081 455.293 158.721 455.178 155.359C455.108 153.273 454.048 152.28 451.98 151.883C445.206 150.588 438.462 149.13 431.694 147.8C430.563 147.579 429.34 147.507 428.209 147.68C426.809 147.897 425.753 148.758 425.737 150.33C425.694 153.982 425.644 157.637 425.784 161.285C425.807 161.856 426.813 162.391 427.364 162.941L427.251 162.821Z" fill="white"/>
<path fill-rule="evenodd" clip-rule="evenodd" d="M427.102 164.667C427.431 162.145 427.794 159.627 428.074 157.101C428.274 155.287 428.361 153.462 428.546 151C436.685 152.716 444.418 154.346 452.334 156.015C452.567 161.266 452.785 166.132 453 171C449.169 165.225 443.125 165.617 437.596 164.986C434.097 164.585 430.54 164.691 427 164.559C426.992 164.549 427.102 164.667 427.102 164.667Z" fill="white"/>
<path fill-rule="evenodd" clip-rule="evenodd" d="M437.381 188H432.164C431.149 183.184 430.152 178.457 429 173C434.066 173.848 438.372 174.569 443 175.343C442.428 180.18 438.541 183.444 437.381 188Z" fill="white"/>
<path fill-rule="evenodd" clip-rule="evenodd" d="M440 190C437.527 201.156 435.161 211.595 434.821 223C433.122 219.188 434.261 202.648 436.406 194.163C436.848 192.41 437.436 190.934 440 190Z" fill="white"/>
<path fill-rule="evenodd" clip-rule="evenodd" d="M434 168.557C439.179 167.578 440.638 167.789 444 170C440.666 169.519 437.334 169.038 434 168.557Z" fill="white"/>
<path fill-rule="evenodd" clip-rule="evenodd" d="M363.865 170.873C362.104 170.715 360.967 170.611 359.724 170.499C358.499 165.221 359.038 160.167 359.807 154.764C361.328 154.484 362.755 153.967 364.168 154.002C371.44 154.172 378.707 154.507 385.975 154.734C388.142 154.802 388.646 156.107 388.865 157.823C389.439 162.339 388.067 166.555 386.885 171H381.849C381.532 169.267 381.131 167.614 380.948 165.94C380.707 163.719 379.585 162.674 377.223 162.544C374.558 162.395 371.919 161.867 369.255 161.692C365.03 161.417 363.946 162.442 363.867 166.491C363.844 167.757 363.865 169.024 363.865 170.873Z" fill="white"/>
<path fill-rule="evenodd" clip-rule="evenodd" d="M378 163.925V170H366.465C366.311 167.732 366.162 165.577 366 163.2C370.216 162.437 373.913 164.117 378 163.925Z" fill="white"/>
</svg>
