<svg width="314" height="434" viewBox="0 0 314 434" fill="none" xmlns="http://www.w3.org/2000/svg">
<mask id="mask0" mask-type="alpha" maskUnits="userSpaceOnUse" x="0" y="0" width="314" height="434">
<path fill-rule="evenodd" clip-rule="evenodd" d="M313.206 0.521881H0.0938721L0.0938721 433.192H313.206V0.521881Z" fill="white"/>
</mask>
<g mask="url(#mask0)">
<path fill-rule="evenodd" clip-rule="evenodd" d="M202.704 193.104C202.883 193.305 203.06 193.503 203.239 193.704C203.885 193.098 204.53 192.494 205.176 191.889C205.031 191.726 204.886 191.562 204.744 191.399L202.704 193.104ZM211.922 233.879C209.984 237.632 210.039 238.717 212.263 240.908C212.148 238.555 212.041 236.343 211.922 233.879ZM146.55 222.192C146.128 222.315 145.709 222.437 145.29 222.56C145.782 224.139 146.367 225.697 146.744 227.305C147.129 228.949 147.313 230.639 147.587 232.309C148.212 228.748 148.366 225.297 146.55 222.192ZM165.988 222.355C166.818 222.01 167.316 221.845 167.307 221.799C166.51 218.381 165.672 214.972 164.838 211.562L163.85 211.789C163.652 215.377 165.607 218.581 165.988 222.355ZM124.262 238.64C123.258 235.324 122.412 232.529 121.567 229.73C121.243 229.795 120.92 229.858 120.598 229.922C120.931 232.804 121.265 235.687 121.606 238.64H124.262ZM171.58 217.344C171.191 213.811 171.086 210.133 168.811 207.041C167.787 210.935 170.321 213.958 171.58 217.344ZM93.8747 226.467C93.2357 230.218 94.5826 233.606 95.9148 236.996C95.8913 233.366 96.3852 229.641 93.8747 226.467ZM134.628 226.25C133.749 231.199 134.547 234.306 136.854 235.909C137.262 232.76 136.58 229.488 134.628 226.25ZM100.241 227.456C99.1669 231.384 100.122 235.698 102.593 238.819C102.344 234.445 102.311 230.761 100.241 227.456ZM144.339 233.504C143.222 230.23 142.186 227.196 141.15 224.159C140.688 224.24 140.226 224.322 139.766 224.404C139.627 227.747 141.411 230.875 141.554 234.552C142.911 234.042 143.804 233.704 144.339 233.504ZM77.0323 234.14C77.3195 234.071 77.6083 234.001 77.8955 233.933C77.0396 229.62 76.2218 225.3 75.256 221.012C75.1725 220.643 74.1055 220.497 72.5828 219.873C73.9179 224.384 75.0142 228.131 76.1442 231.866C76.3786 232.643 76.7333 233.383 77.0323 234.14ZM232.081 306.123C228.988 305.256 226.561 304.934 223.728 307.056C224.657 308.143 225.36 309.76 226.304 309.915C228.796 310.323 230.55 308.807 232.081 306.123ZM180.364 195.027C179.92 195.107 179.475 195.186 179.031 195.265C178.091 200.002 180.98 203.718 183.005 207.751C183.621 206.846 183.811 205.961 183.583 205.201C182.964 203.152 182.123 201.17 181.455 199.132C181.015 197.789 180.723 196.398 180.364 195.027ZM260.993 380.067C259.113 377.15 256.436 375.625 253.416 374.304C252.862 375.037 252.394 375.581 252.025 376.183C251.912 376.368 252.06 376.713 252.09 376.985C256.022 379.715 257.086 380.095 260.993 380.067ZM160.13 215.016C158.03 215.013 157.531 216.29 157.882 217.897C158.492 220.678 159.304 223.413 160.154 226.633C161.354 225.784 162.075 225.272 162.301 225.114C161.502 221.398 160.816 218.211 160.13 215.016ZM228.312 403.561C224.112 398.128 220.811 396.111 216.146 396.144C219.728 399.334 223.083 401.96 228.312 403.561ZM90.4101 236.809C90.3441 232.816 91.0139 228.694 88.4066 224.527C86.8517 228.854 87.7398 234.794 90.4101 236.809ZM80.6567 221.985C79.8096 227.562 82.5209 231.215 83.2859 235.305C83.6142 231.89 83.7681 228.499 83.5087 225.137C83.4427 224.268 82.0797 223.498 80.6567 221.985ZM110.056 239.413C109.335 229.503 109.206 229.173 105.677 228.459C106.161 231.846 106.533 235.103 107.187 238.303C107.28 238.758 108.74 238.931 110.056 239.413ZM126.167 228.933C126.802 232.114 127.354 234.877 127.955 237.893C128.776 237.72 129.689 237.525 130.831 237.283C130.672 235.317 130.595 233.592 130.372 231.884C130.227 230.764 129.872 229.67 129.613 228.572C128.969 228.493 128.546 228.358 128.149 228.408C127.592 228.48 127.054 228.689 126.167 228.933ZM220.046 92.8879C220.404 92.8396 220.76 92.7912 221.118 92.7428C221.131 89.459 222.275 86.1767 220.959 82.4765C219.371 83.686 218.116 84.6432 216.536 85.8454C217.748 88.276 218.897 90.5819 220.046 92.8879ZM176.85 214.005C178.38 213.362 179.199 212.816 178.526 211.073C177.597 208.663 176.98 206.135 176.162 203.681C175.865 202.79 175.371 201.966 174.679 200.506C174.103 201.822 173.495 202.554 173.524 203.26C173.678 207.062 175.172 210.463 176.85 214.005ZM218.041 242.273C222.083 237.075 221.343 232.875 216.483 232.082C214.725 235.695 216.735 238.734 218.041 242.273ZM112.131 229.027C112.967 232.17 113.686 235.091 114.525 237.975C115.019 239.673 116.143 239.762 117.434 238.938C117.069 236.282 116.632 233.74 116.393 231.179C116.178 228.867 115.051 228.191 112.131 229.027ZM154.037 218.715C152.164 218.882 150.532 219.262 150.779 221.138C151.188 224.237 151.7 227.398 154.136 230.61C154.898 229.337 155.942 228.405 155.838 227.627C155.441 224.642 154.674 221.705 154.037 218.715ZM240.305 295.894C234.555 295.826 230.118 296.368 226.169 299.419C229.243 299.999 232.317 300.58 235.498 301.181C236.913 299.624 238.246 298.159 240.305 295.894ZM220.926 61.2989C220.483 61.2813 220.04 61.2637 219.596 61.2476C217.817 66.38 216.693 71.6282 216.488 77.5933C218.836 76.595 221.29 76.6141 221.345 74.1879C221.44 69.8955 221.09 65.5943 220.926 61.2989ZM208.701 186.063C217.073 180.403 215.743 157.759 206.734 152.445C205.433 153.805 206.531 154.755 207.253 155.83C210.268 160.306 212.315 165.224 211.745 170.644C211.325 174.659 209.923 178.567 209.007 182.534C208.744 183.673 207.357 184.761 208.701 186.063ZM232.54 344.97C235.373 350.017 245.105 360.544 249.295 362.877C249.737 361.496 250.167 360.154 250.624 358.727C246.687 356.264 246.199 352.295 245.733 348.664C241.083 347.364 236.686 346.131 232.54 344.97ZM218.16 348.306C224.129 356.368 243.243 370.944 248.442 371.312C244.23 367.021 240.161 363.113 236.373 358.951C232.451 354.645 228.802 350.095 224.824 345.407C222.662 346.346 220.581 347.252 218.16 348.306ZM208.461 195.752C207.07 196.65 205.889 197.484 204.642 198.206C202.357 199.531 199.949 199.814 197.51 198.663C194.396 197.193 193.776 194.56 196.021 191.928C196.617 191.231 197.702 190.949 198.562 190.477C195.326 188.711 192.889 187.87 189.904 189.533C190.647 194.47 191.399 199.453 192.101 204.097C199.332 206.815 205.579 205.197 211.794 202.611C210.659 200.276 209.598 198.091 208.461 195.752ZM174.44 368.184C184.315 377.025 194.491 384.499 207.297 389.531C206.507 388.401 206.299 388.01 206.007 387.697C199.516 380.747 193.04 373.784 186.499 366.882C185.221 365.533 183.682 364.431 182.256 363.21C179.643 364.873 177.311 366.357 174.44 368.184ZM203.284 184.154C208.873 175.008 208.675 166.093 202.903 160.376C200.775 164.066 198.782 167.791 196.527 171.352C194.317 174.844 191.84 178.166 189.433 181.628C194.29 182.512 198.7 183.317 203.284 184.154ZM291.379 37.3037C284.101 40.2195 278.951 51.4387 280.547 60.3695C288.815 60.6964 297.055 61.0204 305.785 61.3664C304.424 51.3654 298.943 43.7159 291.379 37.3037ZM242.625 66.3492C243.353 60.8884 243.724 55.4804 244.87 50.2439C246.026 44.9737 247.952 39.8736 249.676 34.2589C247.957 34.8951 246.6 35.3569 245.273 35.8949C238.382 38.6891 232.927 43.5107 227.49 48.3953C225.894 49.8305 225.412 51.2775 225.614 53.3562C226.105 58.4359 226.351 63.5375 226.739 68.6274C226.824 69.7357 227.09 70.8293 227.299 72.1032C232.653 70.0934 237.67 68.2096 242.625 66.3492ZM96.1068 318.943C89.8077 300.655 83.6406 282.745 77.472 264.836C75.8393 267.119 74.8207 269.382 74.3767 271.754C73.021 279.012 73.0635 286.317 74.5393 293.555C76.0328 300.879 78.0054 308.056 82.1252 314.449C84.2517 317.752 86.8092 319.954 91.1473 318.995C92.6671 318.66 94.3246 318.943 96.1068 318.943ZM73.2496 250.763C71.6111 253.434 69.9169 255.514 68.9526 257.89C66.0932 264.952 63.7117 272.15 63.0097 279.843C61.7507 293.618 64.2378 306.389 72.5872 317.682C74.5848 320.382 76.8388 322.893 78.939 325.522C80.8882 327.964 81.0905 329.382 78.9287 331.184C76.4636 333.239 76.4739 335.763 76.8388 338.358C77.4954 343.039 82.0079 345.873 86.4897 344.489C89.2787 343.627 92.0002 342.53 94.7218 341.463C97.9475 340.199 98.1249 339.722 97.3935 336.672C94.5884 334.749 92.2494 333.364 90.2254 331.613C89.6685 331.131 89.6216 329.197 90.1287 328.586C90.6534 327.957 92.2274 327.793 93.1829 328.039C94.307 328.329 95.2597 329.281 96.5699 330.127C95.4443 325.32 94.2132 324.459 90.2401 325.372C89.5351 325.535 88.8507 325.839 88.1971 326.157C86.3416 327.058 84.7119 326.623 83.4369 325.166C81.322 322.75 78.8731 320.473 77.3606 317.702C66.5182 297.852 63.7688 277.414 73.6468 256.282C74.4148 254.642 75.1666 253.171 73.2496 250.763ZM194.037 211.986C193.669 214.034 194.892 214.312 196.556 214.551C204.312 215.674 211.736 214.494 218.831 211.35C222.568 209.693 226.2 207.768 229.764 205.76C245.667 196.792 258.538 184.802 267.109 168.436C272.649 157.865 275.281 146.907 272.861 134.998C272.269 132.088 273.044 130.608 275.54 129.143C276.549 128.554 277.665 128.155 278.688 127.589C282.629 125.402 285.379 122.235 286.58 117.528C278.074 121.907 268.837 123.379 259.582 125.415C261.743 126.913 263.905 128.061 266.177 128.914C268.822 129.907 270.276 131.599 270.282 134.463C270.305 144.216 268.994 153.715 265.06 162.746C258.736 177.26 248.867 188.798 235.677 197.432C223.278 205.544 210.054 211.498 194.841 211.63C194.577 211.631 194.315 211.857 194.037 211.986ZM241.987 72.3187C238.458 73.6982 234.872 75.2155 231.204 76.4968C228.139 77.5669 227.113 79.4243 227.125 82.7316C227.145 88.8492 226.462 94.9652 226.273 101.087C226.24 102.213 226.886 103.631 227.685 104.466C232.561 109.562 238.032 113.956 244.766 116.282C247.71 117.298 250.97 117.402 254.503 117.99C251.565 110.192 248.371 103.273 246.388 96.0193C244.359 88.5985 243.516 80.8508 241.987 72.3187ZM279.411 66.358C280.485 76.4924 281.937 85.8439 286.753 94.3085C288.981 98.2256 292.446 100.866 296.617 103.402C298.523 101.045 300.807 99.0289 302.073 96.5016C305.58 89.4971 307.419 82.0089 307.581 74.0984C307.642 71.1195 306.396 69.6844 303.811 68.5292C296.089 65.0856 288.077 66.2627 279.411 66.358ZM283.312 33.0392C277.62 31.7945 271.911 32.2739 266.243 32.161C261.068 32.0584 257.144 34.6635 254.675 38.7638C249.963 46.5892 248.927 55.4145 248.725 64.3306C257.326 62.9995 265.62 61.7167 274.108 60.4017C274.999 55.8513 275.47 50.996 276.972 46.4852C278.473 41.9787 281.007 37.8168 283.312 33.0392ZM236.862 374.871C237.067 374.461 237.276 374.052 237.482 373.64C236.027 372.312 234.652 370.882 233.102 369.673C226.662 364.651 220.133 359.722 214.613 353.654C212.789 351.646 211.09 350.995 208.537 352.314C205.3 353.987 202.242 353.203 199.694 350.728C197.708 348.799 195.75 346.81 194.026 344.649C190.77 340.567 187.694 336.344 184.354 331.933C183.051 333.009 181.849 334 180.317 335.266C181.581 337.89 182.696 340.394 183.975 342.809C185.274 345.261 186.797 347.597 188.114 350.039C189.326 352.288 190.143 354.66 188.595 357.093C187.689 358.52 188.292 359.676 189.174 360.665C194.708 366.869 200.293 373.026 205.887 379.177C206.01 379.313 206.412 379.193 206.69 379.193C209.793 374.663 211.499 374.036 216.967 375.011C218.175 375.225 219.545 374.97 220.757 374.631C225.231 373.383 229.675 373.209 234.166 374.52C235.026 374.77 235.959 374.761 236.862 374.871ZM196.947 221.598C200.882 236.937 207.47 251.188 213.319 265.691C216.859 274.466 221.288 282.884 225.316 291.463C230.994 290.346 236.066 289.347 241.315 288.317C236.694 270.866 231.613 253.674 225.079 236.176C224.107 238.972 223.637 240.992 222.73 242.792C221.063 246.091 217.621 247.818 214.405 247.282C210.782 246.68 207.429 243.616 207.265 239.95C207.139 237.097 207.407 234.014 208.393 231.366C210.397 225.982 216.826 224.966 220.923 229.05C221.589 229.716 222.327 230.308 223.032 230.935L223.757 230.484C222.009 226.276 220.259 222.068 218.792 218.539C211.092 219.616 204.199 220.582 196.947 221.598ZM67.059 150.667C102.138 130.876 138.616 123.143 177.751 128.596C178.063 125.065 178.352 121.782 178.652 118.392C171.575 116.136 164.674 115.136 157.636 114.85C146.751 114.407 136.035 115.696 125.376 117.764C118.067 119.185 110.609 119.909 103.622 122.753C96.9861 125.453 90.2313 127.874 83.7095 130.82C79.3406 132.792 75.212 135.347 71.1407 137.902C69.8993 138.681 68.7518 140.206 68.3575 141.613C67.6599 144.104 67.5749 146.767 67.059 150.667ZM290.731 107.696C284.886 102.195 280.352 96.2612 278.332 88.9239C276.329 81.6512 274.891 74.223 273.107 66.4445C264.802 66.5706 256.582 68.0571 248.742 70.7985C248.546 71.4083 248.401 71.681 248.38 71.9625C248.326 72.6896 248.285 73.4241 248.313 74.1527C248.751 85.0757 250.961 95.6059 255.604 105.531C257.083 108.69 258.962 111.676 260.816 114.642C262.459 117.267 264.715 118.307 267.891 117.11C270.478 116.137 273.266 115.699 275.877 114.782C280.945 113.006 285.884 110.921 290.731 107.696ZM127.803 345.794C128.893 347.17 129.642 348.441 130.689 349.384C138.239 356.187 146.306 362.189 156.141 365.372C160.616 366.819 164.801 368.261 169.157 364.353C172.588 361.276 176.925 359.224 180.744 356.551C181.834 355.789 182.522 354.45 183.455 353.301C181.513 350.092 179.7 347.261 178.054 344.335C176.337 341.283 174.599 338.217 173.209 335.011C172.109 332.471 172.819 330.663 174.738 329.751C177.224 328.568 179.746 327.459 182.243 326.3C185.782 324.66 187.399 325.227 189.622 328.451C192.858 333.138 196.201 337.756 199.607 342.321C200.646 343.712 201.898 345.05 203.325 346.008C204.272 346.642 205.915 347.087 206.879 346.698C210.52 345.235 213.992 343.356 217.563 341.708C221.515 339.886 224.823 336.483 229.951 337.05C227.441 331.374 224.925 326.144 222.803 320.756C220.627 315.234 218.833 309.559 216.801 303.751C215.833 304.017 214.978 304.167 214.191 304.487C206.74 307.517 199.235 310.422 191.873 313.661C178.22 319.667 164.661 325.884 151.048 331.986C142.882 335.648 135.44 340.493 127.803 345.794ZM213.123 189.6C214.728 193.431 216.162 196.856 217.725 200.588C219.737 199.694 221.915 198.865 223.967 197.794C232.334 193.419 239.899 187.89 246.292 180.954C257.37 168.934 264.113 154.975 264.323 138.311C264.337 137.187 264.141 136.06 264.037 134.862C262.985 134.551 262.136 134.361 261.333 134.054C256.249 132.112 251.194 129.977 247.62 125.711C246.032 123.814 244.259 122.656 242.083 121.699C235.345 118.727 229.035 115.105 224.295 109.24C223.153 107.828 221.836 106.558 220.059 104.639C217.965 119.343 213.886 132.725 209.274 146.124C213.214 148.117 214.962 151.693 216.387 155.378C218.192 160.056 218.97 164.941 218.771 170.006C218.488 177.163 216.752 183.864 213.123 189.6ZM221.667 426.492C222.995 425.828 223.858 425.586 224.472 425.056C226.643 423.183 228.78 423.148 231.334 424.423C241.312 429.409 250.983 426.937 260.515 422.893C262.595 422.01 263.558 420.226 263.586 417.974C263.599 416.95 263.493 415.925 263.52 414.902C263.602 411.852 264.387 410.721 267.27 409.706C269.477 408.931 271.763 408.375 273.946 407.544C276.125 406.717 278.375 405.915 280.319 404.672C287.356 400.177 289.57 390.269 285.324 383.037C283.95 380.694 283.951 379.642 286.075 377.664C288.313 375.579 290.168 373.196 290.265 370.195C290.397 366.13 290.485 361.893 289.498 358.005C288.223 352.975 285.37 351.724 281.555 352.04C280.242 352.147 278.923 352.138 277.607 352.215C272.504 352.506 271.654 351.367 273.283 346.383C273.374 346.104 273.515 345.842 273.594 345.562C275.461 338.843 272.495 333.265 265.957 331.038C262.794 329.96 259.67 329.883 256.479 330.855C254.946 331.321 253.387 331.845 251.808 331.977C249.317 332.189 247.977 330.808 247.98 328.319C247.982 327.596 248.232 326.878 248.289 326.151C248.717 320.621 242.292 315.018 236.955 316.65C233.984 317.559 231.242 318.293 228.006 316.484C228.104 317.641 227.998 318.257 228.22 318.714C230.638 323.7 233.1 328.664 235.562 333.627C236.078 334.67 237.013 335.655 237.114 336.726C237.476 340.607 240.287 341.321 243.268 341.698C244.99 341.918 246.768 341.627 248.522 341.646C251.543 341.679 252.768 342.954 252.708 345.972C252.693 346.7 252.51 347.424 252.443 348.152C252.103 351.858 252.402 352.363 255.745 353.793C259.258 355.299 259.892 356.825 258.26 360.25C257.206 362.462 255.995 364.599 254.802 366.873C256.268 367.905 257.741 368.864 259.126 369.934C262.743 372.733 266.017 375.843 267.994 380.089C268.835 381.896 269.353 383.76 268.038 385.484C266.747 387.18 264.827 387.366 262.847 387.052C258.491 386.36 254.232 385.378 250.381 383.077C247.902 381.594 245.37 380.202 242.379 378.492C241.952 379.137 241.63 379.831 241.129 380.353C238.502 383.081 237.325 383.418 234.27 381.558C229.93 378.916 225.645 379.174 221.326 381.31C219.514 382.206 217.736 382.67 215.859 381.854C213.813 380.965 212.61 381.943 211.018 383.956C213.312 385.051 215.437 385.847 217.338 387.011C224.352 391.305 230.657 396.505 236.399 402.389C236.704 402.703 236.979 403.055 237.218 403.42C238.298 405.074 239.109 406.801 237.95 408.734C236.814 410.63 234.945 411.122 232.986 410.674C229.719 409.926 226.509 408.923 223.278 408.025C222.379 407.775 221.484 407.519 220.3 407.183C220.758 413.66 221.188 419.723 221.667 426.492ZM115.159 62.4365C101.066 67.9589 72.7088 106.431 71.1949 130.584C105.476 112.463 141.578 105.346 179.819 111.163C183.287 101.266 186.687 91.5568 190.099 81.8183C189.452 81.6629 189.139 81.4753 188.917 81.5515C182.835 83.6288 176.765 85.7398 170.687 87.8274C169.866 88.1088 169.019 88.4607 168.172 88.4988C165.78 88.6029 164.296 86.7 165.074 84.4409C165.443 83.3664 166.195 82.3974 166.884 81.4621C169.349 78.1152 171.021 74.4327 172.027 70.388C173.406 64.851 174.969 59.3594 176.416 53.8385C176.645 52.9692 176.677 52.0486 176.878 50.5884C165.04 57.1458 152.98 60.9749 140.04 61.5305C133.637 61.8062 128.528 64.5666 124.047 68.8238C122.031 70.7369 120.154 72.7937 118.215 74.786C117.503 75.519 116.918 76.5349 116.053 76.9175C115.101 77.3383 113.659 77.5963 112.857 77.1521C112.051 76.7064 111.378 75.3181 111.355 74.3286C111.327 73.084 111.994 71.8144 112.407 70.5698C113.261 67.9941 114.144 65.4286 115.159 62.4365ZM66.7088 157.607C66.7088 158.782 66.7117 159.946 66.7088 161.11C66.6692 177.1 68.2975 192.927 70.9868 208.685C71.573 212.122 73.0313 213.684 76.1383 214.699C88.71 218.816 101.573 221.557 114.708 222.934C120.704 223.561 126.752 223.174 132.477 221.109C137.426 219.323 142.293 217.256 147.046 214.996C150.462 213.37 153.861 211.524 156.873 209.255C165.484 202.755 172.578 194.815 178.084 185.499C180.704 181.065 182.028 176.251 181.06 171.192C178.997 160.382 177.226 149.566 177.423 138.514C177.44 137.533 177.202 136.549 177.093 135.667C174.842 135.151 172.853 134.751 170.895 134.233C165.752 132.87 160.532 132.401 155.225 132.656C152.446 132.788 149.665 132.846 146.882 132.909C134.084 133.205 121.388 134.638 109.25 138.716C96.5113 142.998 83.7358 147.381 72.2399 154.65C70.6438 155.658 68.9042 156.441 66.7088 157.607ZM219.908 294.917C207.562 267.951 196.383 241.297 187.975 213.659C187.365 213.739 187.195 213.71 187.104 213.782C183.678 216.516 180.177 219.163 176.851 222.018C160.465 236.085 141.119 242.889 119.955 244.899C107.916 246.041 96.0115 244.167 84.1784 242.003C82.2175 241.646 80.2097 241.55 77.7021 241.275C78.8716 246.231 79.6879 250.672 80.9776 254.967C83.837 264.495 87.2342 273.87 89.8634 283.456C94.03 298.645 100.156 313.01 107.228 327.009C110.402 333.296 114.749 338.805 119.313 344.285C122.156 342.448 124.835 340.721 127.51 338.987C135.743 333.648 144.103 328.612 153.263 324.896C163.018 320.939 172.557 316.448 182.162 312.129C187.23 309.854 192.205 307.363 197.292 305.127C203.717 302.301 210.225 299.664 216.669 296.878C217.838 296.372 218.871 295.556 219.908 294.917ZM187.887 173.611C189.171 171.963 189.75 171.328 190.207 170.616C202.918 150.815 210.283 129.016 213.796 105.903C214.668 100.175 214.506 94.1941 211.14 88.8697C210.392 87.6896 210.262 86.1034 209.91 84.6887C207.65 75.6187 205.496 66.5222 203.107 57.4859C202.33 54.5437 201.381 51.4886 199.771 48.9568C195.212 41.7793 189.833 35.3466 183.367 29.6219C169.274 17.1479 152.756 10.4777 134.542 7.24663C118.26 4.35718 102.404 7.19679 86.771 11.262C72.9389 14.8595 60.2851 20.9653 48.6968 29.6718C33.0005 41.4627 22.3179 56.879 13.737 74.1014C13.2812 75.0132 13.0174 76.0203 12.6378 76.9703C4.18141 98.101 3.5175 119.993 8.20002 141.8C13.6183 167.042 26.5901 187.879 48.6118 202.316C53.2343 205.346 58.0062 208.161 63.6443 209.683C63.6926 208.838 63.826 208.259 63.7468 207.711C61.4737 192.154 61.2466 176.484 61.0619 160.807C60.9403 150.503 62.2124 140.373 64.7771 130.414C67.2584 120.778 69.5051 111.04 74.2565 102.171C80.5746 90.3767 88.1384 79.4375 96.9803 69.3824C103.375 62.1125 111.331 56.9596 119.7 52.3388C121.382 51.4094 123.069 51.0693 124.492 52.6613C125.752 54.0731 125.354 55.649 124.505 57.1473C123.607 58.7305 122.7 60.3065 121.485 62.4321C122.631 62.0979 123.089 62.0876 123.38 61.8619C128.528 57.8319 134.388 56.165 140.89 55.7428C153.682 54.9131 165.555 51.0253 176.302 43.9094C177.032 43.4271 177.785 42.9389 178.592 42.6238C180.974 41.6914 183.067 42.6985 183.646 45.1892C183.902 46.2858 183.871 47.5436 183.616 48.646C182.758 52.3491 181.751 56.0199 180.778 59.6981C179.041 66.254 177.287 72.8025 175.452 79.6897C181.009 78.8365 185.659 76.8955 189.896 73.921C191.212 72.996 192.476 71.9933 193.743 70.9993C195.121 69.9189 196.661 69.4425 198.23 70.3279C200.066 71.3658 200.089 73.1675 199.664 74.9809C199.433 75.9734 199.132 76.9615 198.738 77.8997C196.411 83.425 193.698 88.8154 191.777 94.4771C189.146 102.22 186.408 110.038 184.96 118.052C181.965 134.639 182.689 151.306 186.106 167.825C186.449 169.486 187.099 171.082 187.887 173.611ZM211.956 64.1767C214.084 59.7054 215.984 55.8205 217.786 51.8946C219.73 47.6594 222.617 44.251 226.389 41.5448C229.839 39.0717 233.169 36.4226 236.701 34.0771C244.93 28.6163 254.256 27.0741 263.893 26.8879C269.162 26.7867 274.432 26.9113 279.701 26.8146C285.109 26.7178 289.875 28.7599 293.92 31.9118C302.565 38.6509 308.533 47.2357 311.215 58.1295C313.903 69.0554 313.83 79.7469 311.23 90.689C309.583 97.6187 306.004 103.074 300.947 107.634C297.678 110.584 294.634 113.204 293.864 118.012C292.816 124.555 288.071 128.62 282.732 131.986C281.625 132.682 280.478 133.318 279.228 134.053C279.228 138.844 279.638 143.673 279.113 148.397C278.57 153.294 277.739 158.332 275.952 162.886C269.013 180.563 257.386 194.626 241.59 205.15C236.125 208.792 230.4 212.049 224.515 215.655C224.718 216.435 224.915 217.397 225.22 218.322C231.173 236.395 236.984 254.517 243.189 272.5C245.2 278.331 246.699 284.23 248.069 290.205C248.747 293.155 248.377 295.746 246.39 298.008C243.896 300.844 241.231 303.535 238.828 306.444C237.869 307.606 237.409 309.181 236.525 310.96C245.351 312.882 253.253 315.514 253.417 326.765C260.329 324.411 266.767 325.144 272.555 328.935C279.022 333.172 278.893 339.93 278.542 346.896C279.669 346.994 280.799 347.131 281.935 347.182C288.638 347.471 293.4 351.131 294.41 357.9C295.601 365.875 296.806 374.105 289.935 380.589C292.375 385.305 292.598 389.965 291.707 394.889C290.23 403.051 285.5 408.259 277.942 411.134C274.947 412.272 271.897 413.266 268.656 414.399C268.569 415.805 268.513 417.081 268.407 418.354C268.051 422.676 265.989 425.82 261.927 427.496C254.292 430.645 246.359 432.658 238.12 433.178C236.169 433.301 234.114 432.575 232.187 431.977C230.826 431.555 229.603 430.692 228.208 429.97C224.721 432.32 220.958 433.128 216.881 432.294C213.425 431.589 212.827 430.368 213.016 426.799C213.28 421.842 213.132 416.86 213.089 411.888C213.069 409.548 212.613 407.18 212.831 404.873C213.164 401.398 211.455 399.347 208.722 397.823C202.974 394.612 197.111 391.594 191.466 388.213C187.59 385.891 183.974 383.128 180.295 380.486C178.037 378.865 175.913 377.057 173.668 375.415C171.1 373.537 168.785 372.255 164.976 372.847C159.62 373.681 154.385 371.136 149.402 368.987C140.128 364.982 132.479 358.587 124.923 352.075C124.373 351.602 123.859 351.086 123.685 350.922C121.345 351.115 119.367 351.637 117.517 351.341C115.237 350.977 113.93 349.042 112.766 347.095C110.384 343.109 107.899 339.186 104.636 335.404C104.475 336.605 104.329 337.805 104.15 339.002C103.633 342.46 101.886 345.001 98.5587 346.276C95.0105 347.639 91.4946 349.139 87.857 350.218C79.7421 352.625 71.1993 346.53 70.9018 338C70.7816 334.567 71.5349 331.106 71.9526 327.038C70.6409 325.142 68.9115 322.612 67.1484 320.105C60.9183 311.251 57.4991 301.408 56.9685 290.608C56.2035 275.107 59.5612 260.465 68.0981 247.54C71.1465 242.924 71.6492 239.196 69.9418 234.37C68.5774 230.517 67.3463 226.534 66.7864 222.507C66.2046 218.319 64.1308 216.143 60.3203 214.76C51.4081 211.527 43.7021 206.235 36.3728 200.296C27.7186 193.284 20.6076 184.965 15.2861 175.237C7.78966 161.528 2.20874 147.222 0.823775 131.358C-0.803015 112.712 -0.0848827 94.4331 6.85462 76.8574C14.9182 56.4348 27.2745 39.2798 44.8556 25.7063C62.0893 12.401 81.6972 5.83782 102.74 2.12155C126.021 -1.9876 147.965 1.93097 168.719 12.5828C183.706 20.2763 195.955 31.3753 204.681 45.909C207.205 50.1135 208.5 55.0582 210.335 59.6717C210.854 60.9749 211.288 62.3119 211.956 64.1767Z" fill="black"/>
<path fill-rule="evenodd" clip-rule="evenodd" d="M212.056 411.912C212.056 411.912 188.806 400.683 167.05 393.19C145.292 385.698 113.17 363.09 99.0903 368.963C85.0088 374.836 59.6753 403.71 109.388 417.785C153.469 430.266 169.816 423.585 183.244 426.595C196.672 429.605 216 431 216 431L212.056 411.912Z" fill="#EAE8E8" fill-opacity="0.5"/>
<path fill-rule="evenodd" clip-rule="evenodd" d="M187.635 173.861C186.846 171.326 186.198 169.728 185.854 168.064C182.435 151.514 181.711 134.815 184.707 118.196C186.156 110.168 188.894 102.335 191.526 94.5771C193.449 88.9048 196.161 83.5026 198.489 77.9683C198.885 77.0283 199.184 76.0369 199.416 75.044C199.841 73.2272 199.819 71.4221 197.982 70.3822C196.412 69.495 194.873 69.9724 193.493 71.0549C192.225 72.0507 190.963 73.0553 189.645 73.9821C185.407 76.9622 180.757 78.9069 175.197 79.7617C177.033 72.8614 178.788 66.3005 180.523 59.7321C181.497 56.047 182.504 52.3692 183.363 48.6591C183.62 47.5546 183.649 46.2929 183.392 45.1943C182.813 42.7004 180.72 41.6913 178.338 42.624C177.53 42.9412 176.778 43.4303 176.048 43.9136C165.298 51.0429 153.42 54.9381 140.626 55.7694C134.12 56.1924 128.259 57.8609 123.109 61.8986C122.819 62.1262 122.362 62.1365 121.214 62.4714C122.429 60.3417 123.338 58.7628 124.235 57.1765C125.084 55.6754 125.483 54.0965 124.222 52.6821C122.798 51.087 121.111 51.4277 119.43 52.3575C111.059 56.9885 103.098 62.1497 96.7037 69.4348C87.8579 79.5091 80.2919 90.469 73.9735 102.285C69.2207 111.171 66.9719 120.928 64.49 130.582C61.9245 140.56 60.6535 150.709 60.7751 161.033C60.9599 176.74 61.1856 192.438 63.4594 208.026C63.54 208.575 63.4066 209.155 63.3582 210C57.7171 208.477 52.9438 205.655 48.3215 202.621C26.292 188.155 13.318 167.28 7.89819 141.99C3.21287 120.141 3.87697 98.2079 12.3358 77.0371C12.7169 76.0854 12.9793 75.0763 13.4353 74.1628C22.0186 56.9077 32.7043 41.4607 48.4051 29.6474C59.9982 20.9259 72.6541 14.8085 86.4901 11.2042C102.129 7.12981 117.988 4.28628 134.276 7.18121C152.494 10.4184 169.018 17.1013 183.114 29.599C189.582 35.3345 194.962 41.7794 199.523 48.9705C201.132 51.5071 202.082 54.568 202.861 57.5158C205.25 66.5692 207.404 75.6829 209.664 84.7702C210.018 86.1875 210.147 87.7767 210.894 88.9591C214.262 94.2937 214.423 100.286 213.552 106.023C210.037 129.181 202.672 151.022 189.956 170.86C189.498 171.574 188.919 172.21 187.635 173.861Z" fill="white"/>
<path fill-rule="evenodd" clip-rule="evenodd" d="M162.231 269.176C162.079 268.367 161.878 266.763 161.464 265.217C160.121 260.202 157.009 256.601 152.871 253.507C144.433 247.198 136.529 247.289 128.682 254.265C121.386 260.752 117.993 275.152 121.613 284.27C123.042 287.866 125.57 290.402 129.1 291.894C142.878 297.722 161.796 288.139 162.231 269.176ZM220 295.49C218.964 296.131 217.932 296.952 216.766 297.457C210.33 300.251 203.832 302.897 197.415 305.73C192.335 307.974 187.37 310.47 182.309 312.753C172.716 317.083 163.191 321.587 153.45 325.557C144.304 329.282 135.956 334.332 127.736 339.687C125.066 341.427 122.389 343.158 119.55 345C114.994 339.504 110.652 333.98 107.482 327.674C100.423 313.635 94.3041 299.229 90.1436 283.997C87.5182 274.383 84.1259 264.981 81.2722 255.427C79.9844 251.119 79.1678 246.666 78 241.697C80.5039 241.972 82.5088 242.069 84.4669 242.427C96.2842 244.596 108.172 246.476 120.191 245.329C141.324 243.314 160.642 236.492 177.006 222.383C180.325 219.522 183.821 216.865 187.244 214.125C187.333 214.051 187.504 214.081 188.113 214C196.507 241.717 207.672 268.448 220 295.49Z" fill="#EC0F02"/>
<path fill-rule="evenodd" clip-rule="evenodd" d="M154.439 150.892C152.552 150.841 151.147 152.173 151.092 154.066C151.038 155.963 152.364 157.43 154.201 157.502C156.03 157.573 157.51 156.167 157.566 154.306C157.623 152.391 156.294 150.94 154.439 150.892ZM80.8487 167.6C80.8384 165.447 79.5274 164.011 77.477 163.906C75.3487 163.799 73.535 165.499 73.5335 167.6C73.5335 169.79 75.1723 171.275 77.4814 171.176C79.7758 171.076 80.8576 169.925 80.8487 167.6ZM131.898 185.215C132.033 178.647 124.721 173.675 118.38 176.074C114.125 177.681 111.347 180.778 110.07 185.046C108.12 191.561 111.931 197.06 118.742 197.803C125.771 198.57 131.741 192.858 131.898 185.215ZM66.0007 156.848C68.2025 155.69 69.9471 154.913 71.5478 153.91C83.077 146.691 95.8893 142.339 108.665 138.086C120.838 134.036 133.571 132.612 146.405 132.319C149.196 132.255 151.986 132.198 154.774 132.066C160.095 131.813 165.331 132.28 170.488 133.633C172.452 134.148 174.446 134.544 176.704 135.058C176.813 135.934 177.052 136.91 177.035 137.884C176.838 148.861 178.613 159.603 180.683 170.339C181.653 175.365 180.326 180.146 177.698 184.548C172.175 193.802 165.063 201.687 156.425 208.142C153.404 210.397 149.997 212.23 146.57 213.843C141.803 216.088 136.922 218.141 131.958 219.915C126.217 221.966 120.151 222.352 114.138 221.727C100.966 220.362 88.0655 217.639 75.4575 213.551C72.3429 212.542 70.879 210.99 70.2911 207.577C67.594 191.927 65.961 176.208 66.0007 160.326C66.0036 159.172 66.0007 158.016 66.0007 156.848Z" fill="white"/>
<path fill-rule="evenodd" clip-rule="evenodd" d="M115.369 62.8489C114.346 65.8412 113.454 68.4069 112.591 70.9828C112.176 72.226 111.503 73.4971 111.53 74.7404C111.553 75.7314 112.232 77.1183 113.047 77.5655C113.856 78.0097 115.31 77.7517 116.271 77.3309C117.144 76.9483 117.736 75.9323 118.453 75.1992C120.41 73.2054 122.305 71.1499 124.338 69.2352C128.861 64.9791 134.017 62.217 140.481 61.9429C153.54 61.3872 165.709 57.5578 177.656 51C177.455 52.4602 177.421 53.3809 177.191 54.2503C175.732 59.7701 174.152 65.2621 172.762 70.801C171.745 74.8459 170.059 78.5273 167.57 81.8758C166.875 82.8112 166.118 83.7788 165.745 84.8549C164.958 87.1141 166.456 89.0171 168.87 88.9116C169.725 88.8749 170.58 88.523 171.41 88.2401C177.542 86.1538 183.67 84.0427 189.806 81.9652C190.031 81.8875 190.346 82.0767 191 82.2321C187.557 91.9713 184.124 101.681 180.624 111.579C142.031 105.761 105.598 112.879 71 131C72.5279 106.846 101.148 68.3717 115.369 62.8489Z" fill="#666666"/>
<path fill-rule="evenodd" clip-rule="evenodd" d="M221.741 426.287C221.257 419.509 220.824 413.437 220.36 406.951C221.556 407.287 222.458 407.543 223.365 407.794C226.624 408.694 229.859 409.698 233.155 410.447C235.131 410.896 237.016 410.403 238.16 408.504C239.329 406.566 238.513 404.839 237.422 403.183C237.181 402.817 236.905 402.463 236.598 402.15C230.807 396.258 224.447 391.05 217.375 386.749C215.458 385.583 213.315 384.786 211 383.689C212.605 381.675 213.82 380.696 215.882 381.585C217.775 382.402 219.568 381.938 221.396 381.041C225.752 378.902 230.074 378.643 234.45 381.289C237.532 383.152 238.717 382.814 241.366 380.081C241.871 379.56 242.198 378.865 242.628 378.219C245.645 379.931 248.197 381.326 250.698 382.81C254.582 385.115 258.877 386.098 263.27 386.791C265.265 387.105 267.203 386.919 268.505 385.22C269.829 383.494 269.309 381.628 268.459 379.818C266.467 375.566 263.163 372.451 259.517 369.648C258.119 368.575 256.633 367.617 255.155 366.583C256.36 364.306 257.579 362.166 258.644 359.949C260.289 356.521 259.649 354.993 256.107 353.485C252.736 352.052 252.434 351.547 252.777 347.836C252.845 347.105 253.03 346.381 253.045 345.653C253.105 342.63 251.87 341.353 248.822 341.32C247.055 341.301 245.26 341.592 243.524 341.372C240.517 340.993 237.682 340.279 237.317 336.393C237.217 335.32 236.274 334.334 235.752 333.29C233.271 328.319 230.786 323.348 228.349 318.353C228.124 317.897 228.232 317.28 228.132 316.122C231.395 317.932 234.16 317.197 237.158 316.288C242.539 314.654 249.02 320.265 248.589 325.803C248.531 326.531 248.277 327.25 248.275 327.974C248.272 330.465 249.623 331.85 252.136 331.637C253.729 331.503 255.302 330.981 256.848 330.514C260.065 329.54 263.217 329.615 266.406 330.697C272.999 332.927 275.989 338.513 274.108 345.242C274.028 345.522 273.885 345.785 273.795 346.062C272.15 351.055 273.008 352.196 278.155 351.904C279.481 351.827 280.812 351.836 282.135 351.729C285.984 351.412 288.86 352.666 290.146 357.703C291.141 361.596 291.053 365.839 290.92 369.91C290.821 372.915 288.952 375.302 286.693 377.388C284.552 379.37 284.55 380.424 285.938 382.769C290.22 390.012 287.985 399.935 280.891 404.436C278.928 405.681 276.659 406.484 274.463 407.312C272.262 408.145 269.955 408.701 267.729 409.478C264.822 410.494 264.029 411.627 263.948 414.681C263.92 415.705 264.026 416.731 264.015 417.756C263.987 420.013 263.016 421.798 260.918 422.683C251.305 426.734 241.55 429.209 231.49 424.216C228.913 422.939 226.759 422.974 224.568 424.85C223.949 425.38 223.078 425.622 221.741 426.287Z" fill="#666666"/>
<path fill-rule="evenodd" clip-rule="evenodd" d="M212.775 189.121C216.335 183.441 218.037 176.807 218.316 169.72C218.51 164.706 217.748 159.869 215.977 155.236C214.579 151.588 212.864 148.048 209 146.074C213.524 132.808 217.525 119.557 219.578 105C221.321 106.9 222.614 108.157 223.734 109.555C228.382 115.362 234.574 118.947 241.183 121.891C243.317 122.839 245.058 123.985 246.615 125.864C250.121 130.088 255.079 132.199 260.067 134.123C260.853 134.426 261.685 134.615 262.718 134.922C262.821 136.11 263.012 137.226 262.999 138.339C262.794 154.838 256.178 168.658 245.312 180.56C239.041 187.427 231.618 192.901 223.411 197.233C221.4 198.293 219.263 199.115 217.289 200C215.755 196.303 214.349 192.912 212.775 189.121Z" fill="white"/>
<path fill-rule="evenodd" clip-rule="evenodd" d="M128 345.962C135.702 340.671 143.205 335.836 151.439 332.181C165.165 326.091 178.838 319.886 192.607 313.892C200.028 310.66 207.596 307.76 215.109 304.734C215.903 304.416 216.764 304.268 217.743 304C219.789 309.798 221.598 315.46 223.793 320.973C225.934 326.35 228.47 331.571 231 337.236C225.829 336.668 222.494 340.065 218.51 341.884C214.91 343.528 211.407 345.404 207.736 346.864C206.765 347.252 205.109 346.809 204.153 346.175C202.715 345.22 201.451 343.884 200.404 342.496C196.971 337.939 193.6 333.331 190.337 328.653C188.093 325.436 186.465 324.87 182.895 326.507C180.376 327.663 177.835 328.77 175.327 329.951C173.394 330.861 172.675 332.665 173.785 335.201C175.188 338.4 176.939 341.46 178.671 344.506C180.331 347.426 182.159 350.251 184.118 353.454C183.177 354.6 182.482 355.936 181.383 356.698C177.533 359.365 173.16 361.413 169.701 364.484C165.307 368.385 161.088 366.945 156.575 365.5C146.657 362.325 138.523 356.335 130.911 349.545C129.856 348.604 129.099 347.334 128 345.962Z" fill="white"/>
<path fill-rule="evenodd" clip-rule="evenodd" d="M174 367.913C176.884 366.109 179.225 364.643 181.85 363C183.282 364.206 184.828 365.295 186.113 366.627C192.681 373.444 199.185 380.322 205.705 387.189C205.998 387.496 206.207 387.882 207 389C194.138 384.028 183.918 376.646 174 367.913Z" fill="white"/>
<path fill-rule="evenodd" clip-rule="evenodd" d="M279.406 420.862C278.37 420.434 277.696 419.908 277.157 420.001C276.585 420.099 276.143 420.785 275.643 421.213C276.219 421.619 276.779 422.319 277.372 422.341C277.884 422.363 278.434 421.61 279.406 420.862ZM277.167 415.001C280.53 414.923 285.063 418.546 284.999 421.264C284.929 424.228 281.905 426.9 278.509 426.996C274.429 427.111 271.14 424.608 271.006 421.288C270.861 417.733 273.452 415.09 277.167 415.001Z" fill="black"/>
<path fill-rule="evenodd" clip-rule="evenodd" d="M247.052 303C249.717 304.116 252.453 305.084 255.019 306.404C256.642 307.241 257.452 308.897 256.741 310.851C256.011 312.855 254.312 313.208 252.557 312.905C250.298 312.515 248.074 311.901 245.839 311.362C242.974 310.672 241.73 309.215 242.049 306.962C242.347 304.848 244.223 303.495 247.052 303Z" fill="black"/>
<path fill-rule="evenodd" clip-rule="evenodd" d="M291 108.93C286.088 112.208 281.082 114.327 275.946 116.133C273.299 117.065 270.475 117.51 267.852 118.5C264.633 119.714 262.347 118.657 260.682 115.989C258.801 112.976 256.897 109.941 255.398 106.728C250.692 96.6418 248.453 85.9372 248.01 74.8362C247.98 74.0957 248.022 73.3492 248.078 72.6101C248.098 72.324 248.246 72.0468 248.445 71.427C256.389 68.6406 264.722 67.1296 273.14 67C274.946 74.9078 276.405 82.4564 278.434 89.8486C280.482 97.3079 285.078 103.34 291 108.93Z" fill="white"/>
<path fill-rule="evenodd" clip-rule="evenodd" d="M67 151C67.5178 147.09 67.6031 144.419 68.3032 141.922C68.6974 140.511 69.8492 138.982 71.0965 138.201C75.1812 135.639 79.3263 133.079 83.7096 131.1C90.2567 128.146 97.0361 125.719 103.695 123.011C110.708 120.161 118.194 119.433 125.529 118.01C136.226 115.936 146.983 114.644 157.907 115.087C164.969 115.375 171.895 116.376 179 118.638C178.698 122.038 178.407 125.329 178.094 128.87C138.816 123.404 102.206 131.156 67 151Z" fill="black"/>
<path fill-rule="evenodd" clip-rule="evenodd" d="M224.672 255.757C224.041 255.246 223.138 254.068 221.978 253.691C220.512 253.214 218.932 254.954 219 256.624C219.07 258.315 219.942 259.365 221.648 259.525C223.314 259.682 224.692 258.288 224.672 255.757ZM227.738 266.807C227.727 265.255 226.256 263.835 224.654 263.83C222.936 263.822 221.719 265.086 221.737 266.86C221.754 268.567 223.078 269.907 224.714 269.876C226.276 269.846 227.753 268.35 227.738 266.807ZM197 222.064C204.19 221.047 211.026 220.079 218.663 219C220.118 222.532 221.855 226.746 223.589 230.959L222.869 231.409C222.169 230.781 221.438 230.188 220.776 229.522C216.714 225.435 210.339 226.451 208.35 231.841C207.374 234.493 207.108 237.577 207.233 240.435C207.394 244.105 210.719 247.17 214.314 247.775C217.501 248.311 220.917 246.58 222.57 243.279C223.469 241.478 223.935 239.456 224.898 236.656C231.378 254.173 236.419 271.381 241 288.852C235.795 289.884 230.765 290.883 225.134 292C221.138 283.414 216.747 274.987 213.237 266.201C207.436 251.684 200.901 237.419 197 222.064Z" fill="#CCCCCC"/>
<path fill-rule="evenodd" clip-rule="evenodd" d="M237.38 374.566C236.482 374.455 235.549 374.463 234.692 374.209C230.216 372.879 225.783 373.055 221.323 374.322C220.115 374.664 218.747 374.925 217.545 374.707C212.091 373.718 210.39 374.353 207.296 378.951C207.02 378.951 206.618 379.071 206.496 378.935C200.919 372.693 195.349 366.446 189.831 360.152C188.951 359.149 188.35 357.976 189.253 356.528C190.797 354.059 189.983 351.653 188.774 349.371C187.46 346.893 185.944 344.523 184.647 342.035C183.372 339.584 182.26 337.043 181 334.381C182.527 333.097 183.725 332.09 185.026 331C188.355 335.476 191.424 339.761 194.669 343.902C196.388 346.093 198.34 348.113 200.321 350.069C202.861 352.581 205.91 353.377 209.139 351.678C211.683 350.341 213.377 351.001 215.196 353.037C220.7 359.195 227.21 364.194 233.632 369.292C235.177 370.517 236.549 371.969 238 373.317C237.792 373.733 237.586 374.15 237.38 374.566Z" fill="white"/>
<path fill-rule="evenodd" clip-rule="evenodd" d="M283 32.8777C280.667 37.6296 278.103 41.769 276.584 46.2511C275.064 50.7375 274.588 55.5666 273.686 60.0924C265.097 61.4003 256.704 62.6761 248 64C248.205 55.1321 249.253 46.3531 254.021 38.57C256.52 34.4918 260.49 31.9008 265.727 32.0029C271.463 32.1166 277.24 31.6384 283 32.8777Z" fill="white"/>
<path fill-rule="evenodd" clip-rule="evenodd" d="M279 66.2678C287.613 66.1733 295.576 65.0061 303.251 68.4207C305.821 69.5662 307.059 70.9893 306.998 73.9431C306.838 81.787 305.01 89.2122 301.524 96.1577C300.267 98.6638 297.996 100.663 296.101 103C291.957 100.485 288.512 97.8672 286.298 93.983C281.511 85.5897 280.068 76.3169 279 66.2678Z" fill="white"/>
<path fill-rule="evenodd" clip-rule="evenodd" d="M241.586 72C243.103 80.5922 243.938 88.396 245.952 95.8719C247.918 103.177 251.086 110.148 254 118C250.495 117.409 247.263 117.305 244.342 116.28C237.665 113.936 232.237 109.511 227.401 104.38C226.609 103.537 225.968 102.11 226.001 100.976C226.189 94.8088 226.866 88.6485 226.846 82.4882C226.836 79.157 227.853 77.2862 230.893 76.2083C234.531 74.9177 238.088 73.388 241.586 72Z" fill="white"/>
<path fill-rule="evenodd" clip-rule="evenodd" d="M194.066 212.002C194.346 211.872 194.609 211.645 194.874 211.643C210.151 211.511 223.43 205.523 235.881 197.364C249.126 188.682 259.037 177.077 265.388 162.479C269.339 153.395 270.655 143.842 270.631 134.033C270.627 131.152 269.166 129.45 266.509 128.452C264.228 127.594 262.057 126.439 259.886 124.932C269.18 122.886 278.457 121.404 287 117C285.792 121.734 283.031 124.919 279.073 127.119C278.047 127.688 276.925 128.089 275.912 128.682C273.406 130.155 272.627 131.644 273.222 134.571C275.653 146.547 273.008 157.569 267.445 168.201C258.838 184.661 245.914 196.721 229.944 205.74C226.365 207.76 222.718 209.697 218.965 211.362C211.84 214.524 204.384 215.711 196.596 214.582C194.925 214.342 193.697 214.061 194.066 212.002Z" fill="white"/>
<path fill-rule="evenodd" clip-rule="evenodd" d="M72.5336 251C74.448 253.407 73.6972 254.876 72.9303 256.515C63.0656 277.629 65.8113 298.05 76.6391 317.884C78.1495 320.653 80.5952 322.926 82.7072 325.341C83.9805 326.797 85.608 327.232 87.461 326.332C88.1152 326.014 88.7972 325.71 89.5012 325.548C93.4691 324.635 94.7 325.495 95.8226 330.298C94.5156 329.453 93.5627 328.502 92.4402 328.212C91.4859 327.966 89.914 328.13 89.3915 328.759C88.8836 329.369 88.9304 331.301 89.4866 331.783C91.5078 333.532 93.8452 334.917 96.6451 336.838C97.3754 339.885 97.1998 340.363 93.9769 341.625C91.259 342.692 88.5426 343.787 85.7559 344.648C81.2816 346.031 76.7737 343.2 76.118 338.523C75.7536 335.929 75.7433 333.408 78.2051 331.354C80.3639 329.554 80.162 328.138 78.2154 325.697C76.118 323.071 73.867 320.562 71.8721 317.862C63.5354 306.581 61.0502 293.82 62.3074 280.057C63.0085 272.369 65.3869 265.177 68.2423 258.122C69.2054 255.747 70.8973 253.669 72.5336 251Z" fill="white"/>
<path fill-rule="evenodd" clip-rule="evenodd" d="M95 318.723C93.2737 318.723 91.6681 318.444 90.1959 318.776C85.9938 319.728 83.5165 317.541 81.4566 314.263C77.4659 307.914 75.5565 300.787 74.1085 293.515C72.6789 286.329 72.6377 279.076 73.9523 271.87C74.3825 269.514 75.3691 267.266 76.9492 265C82.9245 282.783 88.8984 300.565 95 318.723Z" fill="white"/>
<path fill-rule="evenodd" clip-rule="evenodd" d="M242.98 67.2224C238.046 69.0903 233.05 70.9819 227.721 73C227.511 71.7208 227.249 70.6227 227.164 69.5099C226.777 64.399 226.532 59.2764 226.043 54.1759C225.842 52.0886 226.322 50.6342 227.911 49.1946C233.325 44.2899 238.754 39.4484 245.617 36.6428C246.937 36.1011 248.288 35.6389 250 35C248.284 40.6363 246.365 45.7589 245.215 51.0508C244.074 56.3089 243.705 61.7376 242.98 67.2224Z" fill="white"/>
<path fill-rule="evenodd" clip-rule="evenodd" d="M291.892 37C299.299 43.3955 304.667 51.0266 306 61C297.451 60.6564 289.382 60.3318 281.285 60.0057C279.723 51.0997 284.765 39.9082 291.892 37Z" fill="white"/>
<path fill-rule="evenodd" clip-rule="evenodd" d="M202.137 184C197.789 183.157 193.606 182.344 189 181.451C191.281 177.956 193.632 174.603 195.728 171.08C197.868 167.486 199.757 163.726 201.775 160C207.251 165.772 207.438 174.77 202.137 184Z" fill="white"/>
<path fill-rule="evenodd" clip-rule="evenodd" d="M207.803 196.171C208.894 198.531 209.912 200.731 211 203.086C205.039 205.69 199.045 207.321 192.108 204.582C191.434 199.902 190.714 194.88 190 189.906C192.864 188.229 195.202 189.075 198.307 190.856C197.481 191.333 196.441 191.615 195.87 192.32C193.715 194.972 194.309 197.624 197.297 199.105C199.637 200.265 201.947 199.98 204.14 198.646C205.335 197.919 206.468 197.077 207.803 196.171Z" fill="white"/>
<path fill-rule="evenodd" clip-rule="evenodd" d="M219 347.912C221.399 346.854 223.46 345.945 225.602 345C229.543 349.707 233.158 354.274 237.043 358.595C240.797 362.772 244.827 366.695 249 371C243.85 370.631 224.914 356.003 219 347.912Z" fill="white"/>
<path fill-rule="evenodd" clip-rule="evenodd" d="M233 345C236.898 346.102 241.031 347.273 245.402 348.509C245.839 351.954 246.298 355.722 250 358.06C249.569 359.416 249.165 360.689 248.75 362C244.81 359.786 235.663 349.792 233 345Z" fill="white"/>
<path fill-rule="evenodd" clip-rule="evenodd" d="M207.834 186C206.352 184.721 207.881 183.654 208.171 182.536C209.181 178.643 210.726 174.806 211.19 170.863C211.818 165.545 209.561 160.717 206.239 156.324C205.442 155.269 204.232 154.337 205.665 153C215.599 158.216 217.063 180.444 207.834 186Z" fill="white"/>
<path fill-rule="evenodd" clip-rule="evenodd" d="M220.553 61.0534C220.721 65.5222 221.082 69.994 220.983 74.4582C220.927 76.9815 218.408 76.9632 216 78C216.209 71.7961 217.363 66.3378 219.19 61C219.644 61.0183 220.099 61.0351 220.553 61.0534Z" fill="white"/>
<path fill-rule="evenodd" clip-rule="evenodd" d="M241 295.005C238.815 297.146 237.402 298.53 235.899 300C232.525 299.432 229.262 298.885 226 298.335C230.191 295.453 234.9 294.94 241 295.005Z" fill="white"/>
<path fill-rule="evenodd" clip-rule="evenodd" d="M154.224 219C154.85 222.017 155.603 224.979 155.993 227.99C156.095 228.776 155.07 229.716 154.322 231C151.93 227.76 151.426 224.573 151.024 221.445C150.782 219.552 152.384 219.169 154.224 219Z" fill="white"/>
<path fill-rule="evenodd" clip-rule="evenodd" d="M113 229.352C115.753 228.497 116.816 229.188 117.019 231.551C117.244 234.169 117.656 236.768 118 239.483C116.781 240.325 115.722 240.234 115.257 238.498C114.466 235.551 113.786 232.566 113 229.352Z" fill="white"/>
<path fill-rule="evenodd" clip-rule="evenodd" d="M218.31 242C216.967 238.18 214.899 234.9 216.71 231C221.707 231.856 222.468 236.389 218.31 242Z" fill="white"/>
<path fill-rule="evenodd" clip-rule="evenodd" d="M176.174 214C174.572 210.327 173.149 206.801 173.001 202.857C172.974 202.124 173.554 201.365 174.104 200C174.762 201.514 175.233 202.37 175.517 203.293C176.299 205.838 176.887 208.46 177.774 210.959C178.415 212.767 177.634 213.336 176.174 214Z" fill="white"/>
<path fill-rule="evenodd" clip-rule="evenodd" d="M219.472 94C218.335 91.5652 217.199 89.1273 216 86.5593C217.563 85.2892 218.803 84.2794 220.375 83C221.676 86.9093 220.544 90.3772 220.531 93.8467C220.177 93.8993 219.825 93.9504 219.472 94Z" fill="white"/>
<path fill-rule="evenodd" clip-rule="evenodd" d="M125 227.565C125.949 227.308 126.527 227.086 127.124 227.012C127.55 226.958 128.004 227.1 128.694 227.185C128.971 228.341 129.353 229.493 129.508 230.673C129.747 232.471 129.829 234.287 130 236.358C128.774 236.612 127.795 236.818 126.917 237C126.273 233.826 125.68 230.915 125 227.565Z" fill="white"/>
<path fill-rule="evenodd" clip-rule="evenodd" d="M110 238C108.497 237.516 106.829 237.342 106.724 236.886C105.977 233.673 105.552 230.401 105 227C109.029 227.717 109.177 228.048 110 238Z" fill="white"/>
<path fill-rule="evenodd" clip-rule="evenodd" d="M80.2056 222C82.0176 223.59 83.7494 224.399 83.8333 225.311C84.1632 228.844 83.9693 232.41 83.5499 236C82.5768 231.701 79.13 227.861 80.2056 222Z" fill="white"/>
<path fill-rule="evenodd" clip-rule="evenodd" d="M89.9777 236C88.0702 234.031 87.4357 228.226 88.5465 224C90.409 228.072 89.9306 232.097 89.9777 236Z" fill="white"/>
<path fill-rule="evenodd" clip-rule="evenodd" d="M228 404C222.844 402.489 219.535 400.011 216 397C220.603 396.969 223.858 398.874 228 404Z" fill="white"/>
<path fill-rule="evenodd" clip-rule="evenodd" d="M160.601 215C161.36 218.3 162.118 221.592 163 225.431C162.752 225.595 161.954 226.123 160.627 227C159.687 223.674 158.789 220.847 158.114 217.976C157.725 216.316 158.276 214.997 160.601 215Z" fill="white"/>
<path fill-rule="evenodd" clip-rule="evenodd" d="M262 379.999C257.663 380.028 256.481 379.632 252.117 376.79C252.084 376.508 251.921 376.15 252.047 375.957C252.457 375.329 252.974 374.763 253.589 374C256.943 375.376 259.913 376.963 262 379.999Z" fill="white"/>
<path fill-rule="evenodd" clip-rule="evenodd" d="M180.57 194C180.942 195.508 181.244 197.039 181.699 198.517C182.391 200.757 183.262 202.938 183.903 205.193C184.141 206.029 183.942 207.005 183.305 208C181.208 203.562 178.216 199.473 179.189 194.26C179.651 194.173 180.11 194.087 180.57 194Z" fill="white"/>
<path fill-rule="evenodd" clip-rule="evenodd" d="M233 305.736C231.35 308.703 229.46 310.378 226.776 309.927C225.759 309.756 225.001 307.969 224 306.77C227.052 304.422 229.667 304.778 233 305.736Z" fill="white"/>
<path fill-rule="evenodd" clip-rule="evenodd" d="M76.1876 235C75.9062 234.203 75.5724 233.426 75.3517 232.609C74.2883 228.681 73.2566 224.743 72 220C73.4331 220.655 74.4372 220.809 74.5159 221.198C75.4248 225.706 76.1945 230.248 77 234.781C76.7297 234.854 76.4579 234.928 76.1876 235Z" fill="white"/>
<path fill-rule="evenodd" clip-rule="evenodd" d="M145 233.889C144.416 234.103 143.442 234.459 141.962 235C141.803 231.107 139.856 227.796 140.008 224.259C140.511 224.172 141.015 224.087 141.519 224C142.65 227.213 143.781 230.426 145 233.889Z" fill="white"/>
<path fill-rule="evenodd" clip-rule="evenodd" d="M99.313 227C100.797 230.49 100.822 234.382 101 239C99.2279 235.704 98.5426 231.149 99.313 227Z" fill="white"/>
<path fill-rule="evenodd" clip-rule="evenodd" d="M134.259 226C135.711 229.353 136.218 232.739 135.916 236C134.199 234.34 133.605 231.124 134.259 226Z" fill="white"/>
<path fill-rule="evenodd" clip-rule="evenodd" d="M93.1475 226C95.3998 229.315 94.9567 233.207 94.9777 237C93.7812 233.458 92.5729 229.92 93.1475 226Z" fill="white"/>
<path fill-rule="evenodd" clip-rule="evenodd" d="M172 217C170.327 213.383 166.954 210.157 168.317 206C171.343 209.301 171.483 213.228 172 217Z" fill="white"/>
<path fill-rule="evenodd" clip-rule="evenodd" d="M125 238H122.101C121.728 235.015 121.365 232.105 121 229.194C121.354 229.129 121.704 229.065 122.058 229C122.981 231.825 123.904 234.649 125 238Z" fill="white"/>
<path fill-rule="evenodd" clip-rule="evenodd" d="M165.481 222C165.04 218.154 162.787 214.888 163.016 211.232L164.155 211C165.116 214.475 166.081 217.949 167 221.434C167.012 221.48 166.436 221.649 165.481 222Z" fill="white"/>
<path fill-rule="evenodd" clip-rule="evenodd" d="M145.924 222C147.257 225.069 147.145 228.482 146.685 232C146.485 230.351 146.35 228.679 146.067 227.054C145.79 225.466 145.362 223.924 145 222.364C145.308 222.242 145.615 222.122 145.924 222Z" fill="white"/>
<path fill-rule="evenodd" clip-rule="evenodd" d="M210.804 234C210.872 236.454 210.934 238.655 211 241C209.718 238.818 209.686 237.737 210.804 234Z" fill="white"/>
<path fill-rule="evenodd" clip-rule="evenodd" d="M203 191.48L204.65 190C204.765 190.141 204.883 190.284 205 190.425C204.477 190.95 203.956 191.475 203.433 192C203.288 191.826 203.145 191.654 203 191.48Z" fill="white"/>
<path fill-rule="evenodd" clip-rule="evenodd" d="M280 420.742C278.967 421.378 278.382 422.018 277.838 422C277.207 421.98 276.612 421.385 276 421.04C276.532 420.676 277.001 420.092 277.61 420.009C278.182 419.93 278.899 420.377 280 420.742Z" fill="white"/>
<path fill-rule="evenodd" clip-rule="evenodd" d="M151.662 274.491C152.267 276.065 152.606 276.948 153.071 278.155C154.431 276.284 154.98 275.071 151.662 274.491ZM154.191 262.385L153.155 262.368C152.61 263.965 152.066 265.558 151.388 267.544C153.221 267.782 154.438 267.941 156.433 268.198C155.53 265.858 154.86 264.122 154.191 262.385ZM132.669 267.923C133.712 263.734 134.687 259.815 135.732 255.62C128.92 259.081 127.223 262.3 129.069 267.923H132.669ZM134.801 285.577C134.319 283.375 133.847 281.561 133.542 279.719C133.241 277.901 133.108 276.054 132.86 273.858C131.423 273.988 129.828 273.676 129.309 274.275C128.129 275.641 127.154 277.369 126.677 279.109C125.903 281.929 129.734 284.986 134.801 285.577ZM144.831 273.018C142.894 273.223 140.987 273.422 138.884 273.642C139.325 278.258 140.549 281.951 142.886 285.614C144.632 284.737 146.094 284 147.139 283.475C146.332 279.817 145.66 276.772 144.831 273.018ZM142.865 255.239C140.801 258.887 139.229 262.762 139.277 267.549C141.566 267.394 143.529 267.262 145.137 267.153C146.454 263.604 147.599 260.515 148.83 257.191C147.429 255.551 145.551 254.81 142.865 255.239ZM162 267.962C161.566 286.635 142.685 296.068 128.931 290.33C125.407 288.861 122.883 286.364 121.458 282.823C117.844 273.848 121.231 259.669 128.513 253.284C136.345 246.416 144.235 246.325 152.657 252.536C156.788 255.582 159.894 259.127 161.235 264.065C161.648 265.589 161.848 267.166 162 267.962Z" fill="black"/>
<path fill-rule="evenodd" clip-rule="evenodd" d="M119.437 194.38C125.132 194.61 128.973 190.149 127.63 184.867C127.181 183.096 126.084 182.583 124.438 183.373C120.575 185.229 118.459 189.885 119.437 194.38ZM131.998 186.575C131.842 194.078 125.964 199.685 119.042 198.932C112.335 198.203 108.582 192.804 110.501 186.409C111.759 182.22 114.496 179.18 118.685 177.602C124.93 175.247 132.131 180.128 131.998 186.575Z" fill="black"/>
<path fill-rule="evenodd" clip-rule="evenodd" d="M80.9999 167.556C81.0098 169.794 79.9746 170.9 77.7777 170.996C75.5696 171.091 74 169.664 74 167.556C74.0014 165.537 75.7384 163.901 77.7735 164.005C79.7369 164.104 80.9901 165.485 80.9999 167.556Z" fill="black"/>
<path fill-rule="evenodd" clip-rule="evenodd" d="M155.102 152.001C156.82 152.052 158.051 153.589 157.998 155.615C157.947 157.584 156.575 159.073 154.881 158.997C153.179 158.922 151.951 157.369 152.001 155.361C152.052 153.358 153.354 151.948 155.102 152.001Z" fill="black"/>
<path fill-rule="evenodd" clip-rule="evenodd" d="M228 265.955C228.014 267.485 226.538 268.969 224.976 269C223.341 269.029 222.018 267.699 222 266.007C221.981 264.247 223.198 262.993 224.917 263C226.516 263.006 227.987 264.413 228 265.955Z" fill="black"/>
<path fill-rule="evenodd" clip-rule="evenodd" d="M225 255.173C225.021 257.735 223.564 259.147 221.803 258.988C219.998 258.826 219.076 257.762 219.002 256.051C218.93 254.36 220.601 252.598 222.152 253.081C223.378 253.463 224.333 254.656 225 255.173Z" fill="black"/>
<path fill-rule="evenodd" clip-rule="evenodd" d="M142.755 256.135C145.569 255.651 147.534 256.486 149 258.333C147.711 262.078 146.512 265.557 145.136 269.553C143.451 269.677 141.396 269.824 139.001 270C138.951 264.608 140.596 260.244 142.755 256.135Z" fill="white"/>
<path fill-rule="evenodd" clip-rule="evenodd" d="M145.484 273C146.387 277.172 147.119 280.556 148 284.623C146.861 285.208 145.265 286.027 143.364 287C140.814 282.929 139.479 278.823 139 273.693C141.293 273.447 143.372 273.227 145.484 273Z" fill="white"/>
<path fill-rule="evenodd" clip-rule="evenodd" d="M135 286C129.455 285.395 125.262 282.264 126.109 279.378C126.632 277.597 127.698 275.827 128.99 274.427C129.557 273.813 131.303 274.135 132.876 274C133.147 276.25 133.293 278.141 133.622 280.002C133.956 281.889 134.472 283.746 135 286Z" fill="white"/>
<path fill-rule="evenodd" clip-rule="evenodd" d="M132.086 269H128.663C126.905 263.515 128.521 260.377 135 257C134.007 261.091 133.078 264.914 132.086 269Z" fill="white"/>
<path fill-rule="evenodd" clip-rule="evenodd" d="M154.779 262.018C155.442 263.805 156.107 265.59 157 268C155.024 267.733 153.818 267.571 152 267.325C152.673 265.282 153.213 263.643 153.753 262L154.779 262.018Z" fill="white"/>
<path fill-rule="evenodd" clip-rule="evenodd" d="M152 276C154.683 276.633 154.239 277.957 153.139 280C152.763 278.682 152.489 277.719 152 276Z" fill="white"/>
<path fill-rule="evenodd" clip-rule="evenodd" d="M120.246 194.991C119.234 190.249 121.423 185.337 125.42 183.381C127.123 182.547 128.258 183.088 128.722 184.956C130.112 190.528 126.137 195.234 120.246 194.991Z" fill="white"/>
</g>
</svg>
