<?xml version="1.0" encoding="utf-8"?>
<!-- Generator: Adobe Illustrator 22.0.1, SVG Export Plug-In . SVG Version: 6.00 Build 0)  -->
<svg version="1.1" id="Слой_1" xmlns="http://www.w3.org/2000/svg" xmlns:xlink="http://www.w3.org/1999/xlink" x="0px" y="0px"
	 viewBox="0 0 900 900" style="enable-background:new 0 0 900 900;" xml:space="preserve">
<style type="text/css">
	.st0{fill:#FFFFFF;}
</style>
<g>
	<g>
		<path class="st0" d="M460.9,433.4l26-41.6c4-6.4,7.8-11.5,11.5-15.1c3.7-3.6,7.3-6.3,10.8-8.1c3.5-1.8,7.1-2.9,10.7-3.3
			c3.6-0.5,7.4-0.7,11.4-0.7h9v25.5l-7.1-0.2c-3.7-0.3-7.7,0.8-12.1,3.5c-4.4,2.6-9.2,7.9-14.6,15.9l-30.8,46.2l56.4,80.7h-30.1
			l-87.2-128.1v128.1h-25.1V364.6h25.1L460.9,433.4z"/>
	</g>
	<g>
		<path class="st0" d="M540,536.3V364.7h24.6v171.6H540z"/>
	</g>
	<g>
		<path class="st0" d="M511.1,507.8c-29.5,0-53.5-24-53.5-53.5s24-53.5,53.5-53.5c29.5,0,53.5,24,53.5,53.5S540.6,507.8,511.1,507.8
			z M511.1,425.7c-15.8,0-28.6,12.9-28.6,28.6c0,15.8,12.9,28.6,28.6,28.6c15.8,0,28.6-12.9,28.6-28.6
			C539.7,438.5,526.9,425.7,511.1,425.7z"/>
	</g>
	<polyline class="st0" points="430.2,430.7 415.8,409.5 446.3,364.6 476.4,364.6 430.2,430.7 	"/>
	<path class="st0" d="M449.9,492.5c2.5,3.5,6.3,10.6,15.8,15.3c4.7,2.4,9,3.2,12.1,3.5l7.1-0.2v25.5h-9c-4,0-7.8-0.2-11.4-0.7
		c-3.6-0.5-7.2-1.6-10.7-3.3c-3.5-1.8-7.1-4.4-10.8-8.1c-3.7-3.6-7.5-8.6-11.5-15.1l-26-41.6l-46.2,68.8h-25.1V365h25.1v128.1
		c15.3-22.5,30.6-45,46-67.6C420.2,447.7,434.9,470.3,449.9,492.5z"/>
	<path class="st0" d="M405.2,425.5"/>
</g>
</svg>
