<?xml version="1.0" encoding="utf-8"?>
<!-- Generator: Adobe Illustrator 22.0.1, SVG Export Plug-In . SVG Version: 6.00 Build 0)  -->
<svg version="1.1" id="Слой_1" xmlns="http://www.w3.org/2000/svg" xmlns:xlink="http://www.w3.org/1999/xlink" x="0px" y="0px"
	 viewBox="0 0 900 671.3" style="enable-background:new 0 0 900 671.3;" xml:space="preserve">
<style type="text/css">
	.st0{fill:#31343F;}
</style>
<g>
	<g>
		<path class="st0" d="M494.1,268l101.6-162.8c15.6-25.2,30.6-44.8,45-58.9c14.4-14.1,28.5-24.6,42.3-31.5
			c13.8-6.9,27.7-11.2,41.8-13c14.1-1.8,28.9-2.7,44.5-2.7l35.1,0v99.8L776.5,98c-14.4-1.2-30.1,3.3-47.2,13.5
			c-17.1,10.2-36.1,30.9-57.1,62.1L551.7,354.3L772,670H654.2L313.4,169V670h-98V-0.9h98L494.1,268z"/>
	</g>
	<g>
		<path class="st0" d="M803.8,670.2V-0.7H900v670.9H803.8z"/>
	</g>
	<g>
		<path class="st0" d="M690.6,558.8c-115.2,0-209-93.8-209-209s93.8-209,209-209c115.2,0,209,93.8,209,209S805.8,558.8,690.6,558.8z
			 M690.6,237.8c-61.8,0-112,50.2-112,112s50.2,112,112,112c61.8,0,112-50.2,112-112S752.3,237.8,690.6,237.8z"/>
	</g>
	<polyline class="st0" points="374.4,257.6 317.8,174.3 437,-0.9 554.9,-0.9 374.4,257.6 	"/>
	<path class="st0" d="M451.2,498.9c9.9,13.6,24.7,41.3,61.7,59.9c18.2,9.2,35.3,12.4,47.2,13.5l27.9-0.9v99.8h-35.1
		c-15.6,0-30.4-0.9-44.5-2.7c-14.1-1.8-28-6.1-41.8-13c-13.8-6.9-27.9-17.4-42.3-31.5c-14.4-14.1-29.4-33.7-45-58.9L277.7,402.4
		L96.9,671.3h-98V0.3h98v500.9c59.9-88,119.8-176.1,179.7-264.1C335.1,323.7,392.6,412.4,451.2,498.9z"/>
	<path class="st0" d="M276.6,237.1"/>
</g>
</svg>
